<svg width="14" height="14" viewBox="0 0 14 14" fill="none" xmlns="http://www.w3.org/2000/svg">
<path d="M0.958193 6.52546C0.682064 6.82293 0.358732 7.05194 0.00708024 7.22664C0 7.1511 0 7.07555 0 7.00236C0 5.29781 0.608901 3.73491 1.62138 2.52142C1.60486 3.12108 1.65914 3.73727 1.66622 4.32513C1.6733 5.13727 1.52225 5.914 0.955833 6.52546H0.958193Z" fill="#B9FC55"/>
<path d="M4.39919 10.3052C4.60924 11.8492 5.6878 13.1477 7.04956 13.8536C7.14633 13.9032 7.24309 13.9504 7.33985 13.9906C7.22657 13.9976 7.11564 14 7 14C3.43392 14 0.493257 11.3322 0.0613621 7.88533C1.1234 7.39427 1.99899 6.56324 2.21848 5.33322C2.40964 4.26374 2.05327 2.92985 2.29636 1.81788C3.53776 0.691737 5.18982 0 7 0C9.59845 0 11.8641 1.41653 13.0701 3.51771C12.4046 4.07723 11.647 4.52816 10.8328 4.83035C9.31288 5.39224 7.59238 5.41821 6.19049 6.2941C4.83109 7.14401 4.18678 8.73524 4.39919 10.3052Z" fill="#B9FC55"/>
<path d="M14 7C14 10.2651 11.7721 13.0037 8.74882 13.7781C8.31221 13.7002 7.88267 13.5632 7.47438 13.3649C6.15273 12.7204 5.08597 11.4739 4.99157 9.9629C4.89245 8.35514 5.78456 7.03069 7.27377 6.45228C8.67094 5.90455 10.1955 5.8172 11.5738 5.19629C12.2134 4.9059 12.8176 4.53052 13.3628 4.08668C13.7711 4.97437 14 5.95885 14 7Z" fill="#B9FC55"/>
</svg>
