<?xml version="1.0" encoding="UTF-8"?> <svg xmlns="http://www.w3.org/2000/svg" width="36" height="36" viewBox="0 0 36 36" fill="none"><path d="M2.46392 16.7798C1.75388 17.5447 0.922455 18.1336 0.0182063 18.5828C0 18.3885 0 18.1943 0 18.0061C0 13.6229 1.56575 9.60405 4.16925 6.48364C4.12677 8.02563 4.26635 9.61012 4.28456 11.1218C4.30277 13.2101 3.91436 15.2074 2.45786 16.7798H2.46392Z" fill="black"></path><path d="M11.3122 26.4992C11.8523 30.4695 14.6258 33.8084 18.1274 35.6236C18.3763 35.7511 18.6251 35.8725 18.8739 35.9757C18.5826 35.9939 18.2974 36 18 36C8.83007 36 1.26838 29.14 0.157788 20.2766C2.88874 19.0138 5.14026 16.8769 5.70465 13.714C6.19622 10.9639 5.27984 7.5339 5.90492 4.67454C9.0971 1.77875 13.3452 0 18 0C24.6817 0 30.5078 3.6425 33.6089 9.04553C31.8975 10.4843 29.9494 11.6438 27.8557 12.4209C23.9474 13.8658 19.5233 13.9325 15.9184 16.1848C12.4228 18.3703 10.766 22.4621 11.3122 26.4992Z" fill="black"></path><path d="M36 18C36 26.396 30.2711 33.4381 22.497 35.4293C21.3742 35.229 20.2697 34.8769 19.2198 34.367C15.8213 32.7096 13.0782 29.5042 12.8355 25.6189C12.5806 21.4847 14.8746 18.0789 18.704 16.5916C22.2967 15.1831 26.2171 14.9585 29.7613 13.3619C31.4059 12.6152 32.9595 11.6499 34.3614 10.5086C35.4113 12.7912 36 15.3228 36 18Z" fill="black"></path></svg> 