<?xml version="1.0" encoding="UTF-8"?> <svg xmlns="http://www.w3.org/2000/svg" width="312" height="30" viewBox="0 0 312 30" fill="none"><path d="M89.238 10.1357C89.238 12.6626 88.6551 14.7543 87.4755 16.4109C85.9488 18.5587 83.4091 19.6397 79.8562 19.6397H75.3458V28.9471H68.129V0.898456H79.6064C82.8678 0.898456 85.3521 1.8671 87.0452 3.79036C88.5164 5.44689 89.238 7.56668 89.238 10.1357ZM81.7714 10.2199C81.7714 9.1811 81.4661 8.33879 80.8694 7.7211C80.2587 7.10342 79.2317 6.78053 77.7884 6.78053H75.3596V13.7716H77.7606C79.3289 13.7716 80.3975 13.4347 80.9804 12.7468C81.5078 12.1151 81.7714 11.2728 81.7714 10.2199Z" fill="white"></path><path d="M113.858 28.9471H106.17L104.379 24.0618H94.4285L92.5133 28.9471H84.8941L95.5527 0.898456H103.408L113.858 28.9471ZM102.422 18.5166L99.4386 9.57417L96.4131 18.5166H102.422Z" fill="white"></path><path d="M137.743 14.9087C137.743 17.8287 136.869 20.5241 135.134 23.0089C133.399 25.4937 131.165 27.2204 128.458 28.175C127.015 28.6804 125.558 28.9331 124.073 28.9331H113.428V0.898456H124.073C126.668 0.898456 129.083 1.62845 131.303 3.10248C133.482 4.52036 135.162 6.42957 136.327 8.8161C137.271 10.7815 137.743 12.817 137.743 14.9087ZM130.263 14.9087C130.263 12.9715 129.721 11.2869 128.653 9.8409C127.223 7.93168 125.1 6.97707 122.282 6.97707H120.631V22.8545H122.282C125.114 22.8545 127.237 21.8999 128.653 19.9906C129.735 18.5447 130.263 16.846 130.263 14.9087Z" fill="white"></path><path d="M154.508 28.9471H138.728V0.898456H154.508V6.97707H145.931V11.7642H154.036V17.8428H145.931V22.8545H154.508V28.9471Z" fill="white"></path><path d="M172.189 28.9471H156.326V0.898456H163.543V22.8545H172.189V28.9471Z" fill="white"></path><path d="M197.031 28.9471H181.168V0.898456H188.385V22.8545H197.031V28.9471Z" fill="white"></path><path d="M214.685 28.9471H198.905V0.898456H214.685V6.97707H206.108V11.7642H214.213V17.8428H206.108V22.8545H214.685V28.9471Z" fill="white"></path><path d="M242.65 28.9471H234.947L233.157 24.0618H223.206L221.291 28.9471H213.672L224.33 0.898456H232.185L242.65 28.9471ZM231.214 18.5166L228.23 9.57417L225.205 18.5166H231.214Z" fill="white"></path><path d="M268.838 13.3786C268.838 16.4249 268.505 18.8956 267.825 20.8189C266.798 23.7389 265.091 25.985 262.732 27.5573C260.442 29.0594 257.736 29.8175 254.613 29.8175C249.52 29.8175 245.62 28.0627 242.9 24.5531C240.846 21.8999 239.819 18.7272 239.819 15.0351C239.819 10.9499 241.026 7.52457 243.427 4.74497C246.161 1.58634 249.977 0 254.877 0C258.152 0 260.928 0.856341 263.204 2.54095C264.827 3.74825 266.215 5.53112 267.367 7.88956L260.539 10.7394C259.956 9.43379 259.276 8.4511 258.499 7.7913C257.389 6.86476 256.056 6.4015 254.53 6.4015C251.393 6.4015 249.2 8.02995 247.965 11.3009C247.507 12.5082 247.271 13.7436 247.271 15.0351C247.271 17.7024 248.104 19.9204 249.783 21.7033C251.018 23.0229 252.67 23.6968 254.738 23.6968C256.57 23.6968 258.027 23.1633 259.096 22.0824C259.803 21.3664 260.261 20.3276 260.483 18.9378H254.557V13.3786H268.838Z" fill="white"></path><path d="M293.792 17.0707C293.792 18.7553 293.653 20.1872 293.389 21.3804C292.973 23.2335 291.973 24.9181 290.377 26.4343C288.129 28.5821 285.118 29.6631 281.357 29.6631C277.526 29.6631 274.528 28.5681 272.377 26.3781C271.239 25.227 270.462 23.781 270.046 22.0402C269.754 20.8049 269.602 19.1483 269.602 17.0707V0.898456H276.818V16.0739C276.818 17.2953 276.832 18.2078 276.874 18.7974C277.013 20.7066 277.873 22.0262 279.455 22.7843C280.107 23.0931 280.829 23.2616 281.606 23.2616C283.369 23.2616 284.687 22.6439 285.589 21.3945C286.256 20.482 286.589 18.6991 286.589 16.0739V0.898456H293.805V17.0707H293.792Z" fill="white"></path><path d="M312 28.9471H296.22V0.898456H312V6.97707H303.423V11.7642H311.528V17.8428H303.423V22.8545H312V28.9471Z" fill="white"></path><path d="M23.399 2.56902C21.1229 0.870379 18.3472 0.0280767 15.0719 0.0280767C10.1729 0.0280767 6.3563 1.61441 3.60838 4.77305C1.20742 7.55264 0 10.992 0 15.0632C0 18.7553 1.027 21.9279 3.09488 24.5812C3.48347 25.0866 3.89983 25.5498 4.34394 25.971C5.28767 25.4516 6.2314 24.9743 7.189 24.497C8.46582 23.8652 9.78426 23.2616 11.0888 22.672C10.6864 22.4193 10.3116 22.0964 9.97856 21.7314C8.31315 19.9485 7.48045 17.7305 7.48045 15.0632C7.48045 13.7857 7.7025 12.5363 8.17437 11.329C9.40955 8.07206 11.5885 6.42957 14.7388 6.42957C16.2793 6.42957 17.5978 6.89284 18.7081 7.81937C19.4853 8.47918 20.1653 9.44782 20.7482 10.7674L27.5764 7.9036C26.4106 5.5592 25.0227 3.77632 23.399 2.56902Z" fill="#AFFF3F"></path><path d="M58.3031 15.0491C58.3031 18.8676 57.054 22.2087 54.5421 25.0866C51.6831 28.3575 47.8249 30 42.9397 30C38.0823 30 34.2241 28.3575 31.3652 25.0866C29.9634 23.4862 28.9503 21.7174 28.3397 19.8222C28.2564 20.1872 28.1454 20.5241 28.0343 20.847C27.0073 23.767 25.3142 26.0131 22.941 27.5854C20.651 29.0875 17.9448 29.8456 14.8082 29.8456C12.4073 29.8456 10.2839 29.4525 8.4103 28.6804C8.67399 28.4979 8.95156 28.3154 9.21525 28.1469C10.5476 27.2625 11.9215 26.4062 13.3094 25.5919C14.6417 24.8058 20.7898 21.6051 21.8862 21.0997C23.8986 20.2012 25.9248 19.373 28.0066 18.643C28.2148 18.5728 28.4368 18.4885 28.645 18.4183C29.4083 18.1657 30.1855 17.913 30.9627 17.6743C32.3644 17.2672 33.7939 16.9303 35.2233 16.6495C35.4732 17.913 36.056 19.0781 36.9443 20.1451C38.4986 21.9981 40.4833 22.9247 42.9258 22.9247C45.3684 22.9247 47.3808 21.9981 48.9352 20.1591C50.1842 18.6851 50.8088 16.9864 50.8088 15.0491C50.8088 13.0697 50.1842 11.3711 48.9352 9.92513C47.3392 8.0861 45.3268 7.15957 42.9258 7.15957C41.2743 7.15957 39.7755 7.63687 38.4293 8.57745C37.0969 9.51802 36.1254 10.7674 35.5564 12.3397C35.2233 13.2382 35.0707 14.1366 35.0707 15.0491C35.0707 15.372 35.0846 15.6949 35.1262 16.0037C33.6551 16.102 32.184 16.2705 30.7129 16.5091C30.0883 16.6214 29.4777 16.7337 28.867 16.8601C28.4784 16.9303 28.1037 17.0145 27.729 17.0987C25.4807 17.576 23.2602 18.1797 21.0535 18.8676C21.0535 18.8676 20.6788 18.9799 20.6788 18.9658H14.7388V13.4066H27.7013C27.8539 12.1993 28.1454 10.9499 28.6172 9.70051C29.2973 7.87553 30.1994 6.31727 31.3374 4.99766C34.1963 1.72672 38.0545 0.0842302 42.9258 0.0842302C47.811 0.0842302 51.6692 1.72672 54.5282 4.99766C57.0402 7.87553 58.3031 11.2307 58.3031 15.0491Z" fill="#AFFF3F"></path></svg> 