<?xml version="1.0" encoding="UTF-8"?> <svg xmlns="http://www.w3.org/2000/svg" width="1625" height="1278" viewBox="0 0 1625 1278" fill="none"><path d="M838.012 0.571569C841.693 1.08162 844.977 2.49843 845.43 3.68855C845.883 4.93534 844.751 7.4856 843.052 8.84574C841.24 10.2625 840.957 10.0925 848.885 12.0761C856.473 13.9463 861.966 16.3265 867.629 20.1235C877.653 26.7542 881.844 34.915 884.675 53.2202C885.978 61.4944 886.147 85.5801 884.902 90.8507C884.222 93.9677 882.297 96.8579 880.994 96.8579C880.145 96.8579 878.332 92.0975 875.897 83.5399C869.385 60.7576 859.758 45.8528 847.412 39.3355C834.331 32.4781 809.017 31.6847 786.932 37.4086C783.307 38.372 779.286 39.4488 777.927 39.7889C775.662 40.3556 774.756 41.0923 776.228 41.2057C776.625 41.2057 779.117 41.489 781.778 41.8291C784.44 42.1691 790.839 42.9625 795.992 43.5859C806.526 44.8327 809.3 45.6828 809.867 47.8363C810.66 51.0667 809.074 51.9167 794.69 55.7705C779.343 59.9076 772.208 62.7412 767.734 66.5382C762.977 70.6753 761.618 75.9458 762.128 88.9238C762.581 100.995 763.147 101.562 764.733 91.4741C766.941 76.9659 768.753 73.1689 774.076 71.6387C779.286 70.1086 788.63 71.8654 802.958 77.0793C805.619 78.0427 807.998 79.0628 808.168 79.3462C808.338 79.6295 808.847 79.8562 809.357 79.8562C810.15 79.8562 810.15 79.7429 809.357 78.5528C807.941 76.3425 805.563 69.0885 805.563 66.8783C805.563 65.3481 805.959 64.2713 807.035 63.1379C809.64 60.3043 812.528 61.4944 824.251 70.2219C827.988 73.0555 831.273 75.3224 831.499 75.3224C831.726 75.3224 832.745 73.6789 833.708 71.6954C837.389 64.2713 841.296 59.2275 844.807 57.414C847.129 56.1672 849.508 56.9039 852.226 59.7375C856.247 63.8746 859.022 69.5419 869.895 96.2912C876.35 112.046 877.426 114.426 877.766 113.01C879.748 104.169 880.371 102.695 882.919 100.995C884.335 100.088 884.505 100.088 886.431 101.165C887.563 101.732 888.922 103.035 889.489 103.942C893 110.063 894.982 130.125 893.113 140.496C892.094 145.993 891.074 148.26 888.583 150.697C886.884 152.34 886.091 152.624 883.826 152.68H881.164V161.464C881.221 171.552 881.787 174.669 884.788 180.45C887.223 185.21 893.226 191.501 899.852 196.205C902.344 198.018 905.005 199.945 905.798 200.568C906.987 201.532 909.479 201.929 921.371 203.119C937.115 204.705 939.889 205.159 947.818 207.142C965.599 211.62 979.757 220.007 993.575 234.345C1002.01 243.073 1006.32 250.95 1009.26 262.738C1010.85 269.312 1010.79 267.215 1010.73 297.762C1010.73 303.032 1010.73 309.833 1010.73 312.893C1010.73 319.127 1009.66 322.811 1007.34 324.681C1005.52 326.098 1004.28 326.098 1002.52 324.681C1000.03 322.754 1000.09 320.26 1003.03 306.886C1004.96 298.102 1004.67 294.758 1001.22 283.933C993.801 260.868 983.098 247.663 968.374 243.299C966.109 242.676 963.051 242.279 959.313 242.279C952.065 242.279 946.742 243.753 937.737 248.117C920.975 256.334 905.062 269.312 880.088 295.155C863.609 312.213 856.87 318.674 853.982 320.09C851.546 321.281 851.32 321.337 850.017 320.487C847.073 318.56 848.375 313.856 855.737 299.858C865.138 281.95 868.932 274.583 868.819 274.526C868.705 274.413 853.698 290.167 844.977 299.575C841.58 303.259 831.669 314.31 822.892 324.114C798.711 351.26 793.501 356.418 790.443 356.418C788.177 356.418 783.817 351.714 780.193 345.423C778.324 342.306 774.756 335.732 772.208 330.915C767.281 321.677 765.639 319.07 765.072 319.637C764.563 320.147 766.092 330.972 768.47 344.233C770.792 356.927 771.641 368.942 770.509 372.399C769.489 375.459 765.469 378.803 759.013 381.92C755.842 383.507 753.463 384.754 753.69 384.754C753.916 384.754 757.087 384.017 760.712 383.054C764.393 382.147 778.154 378.633 791.405 375.233L815.473 369.112L815.643 367.412C815.983 364.238 817.568 359.534 819.777 355.284C827.705 340.039 844.185 326.268 859.928 321.847C865.251 320.317 875.274 319.75 880.484 320.657C895.661 323.321 914.009 334.429 927.091 348.88C933.094 355.511 936.605 360.441 942.834 370.699C945.269 374.723 947.478 378.066 947.761 378.236C949.063 379.086 962.485 368.715 970.186 360.838C976.586 354.377 975.68 356.191 980.267 340.549C983.834 328.591 986.949 322.187 989.894 320.827C991.706 319.977 992.725 320.43 994.084 322.584C995.67 325.191 996.01 327.968 995.274 332.105C994.367 337.149 991.706 342.419 985.76 350.864C980.946 357.721 978.511 362.425 978.964 363.898C979.077 364.238 981.456 361.518 984.231 357.778C991.026 348.653 995.557 343.95 997.539 343.95C999.408 343.95 1000.94 345.536 1000.94 347.52C1000.94 349.673 999.294 356.474 994.481 374.099C984.231 411.616 979.757 434.682 977.039 463.528C976.076 473.729 976.076 510.906 977.095 519.634C978.907 536.012 982.362 555.111 985.93 568.089C992.442 591.835 999.691 609.346 1013.45 634.452C1021.1 648.394 1021.83 651.284 1018.27 652.871C1015.38 654.231 1004.9 651.227 979.983 641.933C953.707 632.129 948.667 630.428 928.846 624.421C926.695 623.798 924.882 623.344 924.713 623.458C924.203 624.025 932.471 633.602 942.664 644.313C962.315 664.942 962.938 665.792 959.936 668.626C958.691 669.759 958.407 669.816 956.142 669.249C952.914 668.399 945.099 664.262 935.076 658.028C860.777 611.84 812.585 590.191 778.097 587.357C769.093 586.621 758.333 589.284 750.915 594.102C742.534 599.599 729.112 615.75 729.112 620.397C729.112 622.891 730.755 626.405 731.944 626.631C732.453 626.688 734.662 624.535 737.324 621.304C751.424 604.189 754.426 601.752 763.996 599.769C769.49 598.635 784.383 598.919 792.255 600.335C824.591 606.173 856.36 620.567 886.261 642.953C896.851 650.887 903.363 656.611 916.558 669.646C923.58 676.56 931.225 683.757 933.547 685.627C943.061 693.278 954.443 698.152 962.598 698.152C976.019 698.152 986.779 689.254 1000.14 666.982C1002.58 662.958 1007.62 657.348 1008.86 657.348C1010.22 657.348 1013.68 661.598 1016.06 666.189C1028.35 689.935 1056.55 772.506 1065.1 809.797C1067.99 822.208 1068.95 827.875 1069.29 834.846C1069.57 840.286 1069.52 841.08 1068.33 843.46C1067.65 844.933 1066.17 846.747 1065.16 847.597C1063.91 848.504 1063.29 849.411 1063.51 849.921C1064.19 851.734 1066.68 865.165 1067.48 871.173C1069.63 888.061 1070.59 909.2 1070.59 937.819C1070.59 963.492 1069.91 976.527 1068.33 981.684C1064.7 993.472 1050.37 1009.06 1027.27 1026.4C1019 1032.58 1008.58 1039.43 1002.35 1042.78C996.18 1046.06 995.16 1046.12 990.12 1043.57C984.57 1040.79 970.3 1030.25 964.523 1024.7L962.315 1022.6L963.108 1024.3C968.035 1035.64 976.359 1042.55 993.575 1049.52C996.859 1050.88 999.974 1052.35 1000.48 1052.81C1001.67 1053.83 1001.84 1057.45 1000.88 1059.33C1000.26 1060.52 1000.26 1060.52 1001.28 1059.61C1001.84 1059.1 1003.6 1058.13 1005.07 1057.51C1012.26 1054.45 1014.3 1056.89 1022.23 1077.86C1031.69 1103.08 1037.69 1116 1046.41 1129.94C1052.07 1139.06 1053.15 1141.27 1054.45 1146.15C1055.53 1150.4 1055.53 1152.27 1054.4 1156.06C1053.09 1160.54 1048 1165.47 1042.28 1167.8C1032.76 1171.76 1017.19 1173.35 1001.73 1171.99C989.158 1170.86 982.249 1168.31 975.906 1162.36C969.394 1156.23 966.222 1148.92 963.844 1134.7C963.108 1130.28 962.202 1126.09 961.862 1125.46C961.522 1124.78 959.03 1121.66 956.369 1118.49C945.779 1105.8 931.621 1085.79 927.657 1077.97C924.656 1072.02 924.203 1069.41 925.392 1064.26C926.921 1057.28 931.168 1050.37 935.755 1047.37C937.058 1046.46 937.171 1046.52 938.7 1048.39C939.606 1049.41 941.758 1052.75 943.514 1055.7C954.67 1074.63 965.543 1084.37 977.605 1086.47C981.059 1087.04 981.796 1087.04 982.475 1086.36C982.928 1085.9 985.024 1082.16 987.119 1078.14C989.214 1074.06 991.479 1069.98 992.159 1069.07L993.405 1067.37L990.233 1068.9C985.76 1071.17 979.7 1072.25 972.055 1072.25C957.615 1072.25 950.196 1066.92 946.911 1054.22C945.213 1047.65 945.949 1035.69 948.61 1026.51C950.536 1019.71 952.008 1016.82 953.99 1015.97L955.689 1015.23L955.293 1009.85C954.67 1000.22 956.539 987.408 960.106 976.867C963.278 967.572 970.243 955.955 974.66 952.781L976.133 951.647L973.528 942.92C968.374 925.635 953.934 869.529 953.934 866.809C953.934 864.259 959.37 863.239 985.646 860.802C1011.36 858.478 1030.27 855.871 1040.24 853.378C1047.15 851.677 1055.47 848.844 1056.6 847.88C1057.51 847.03 1057.51 846.974 1056.6 845.897C1055.7 844.933 1055.07 844.82 1050.49 845.16C1041.77 845.84 1031.97 847.144 1011.41 850.374C958.974 858.648 943.684 860.462 925.335 860.462C905.175 860.518 904.099 859.952 900.475 847.54C899.682 844.82 897.643 836.149 895.888 828.328C887.62 790.811 884.052 777.437 879.975 768.426C877.426 762.985 875.444 760.038 873.406 759.018C871.877 758.225 871.594 758.281 868.932 759.755C867.346 760.605 865.194 762.305 864.118 763.552C858.002 770.693 851.66 785.938 845.204 808.946C839.541 829.122 838.125 832.919 834.331 837.623C831.952 840.57 826.006 844.48 821.589 846.01C808.621 850.374 792.481 847.937 788.347 840.966C787.441 839.323 787.441 839.096 788.234 837.849C789.536 835.866 790.273 835.582 798.484 833.882C815.7 830.312 821.986 826.458 824.704 817.787C826.176 813.027 826.12 789.735 824.591 781.744C822.835 772.336 818.305 760.775 813.265 752.841L811.792 750.574L812.132 756.808C812.698 767.009 810.886 778.06 806.979 788.034C805.959 790.698 802.505 797.329 799.277 802.826C775.039 844.763 765.072 877.86 767.564 907.556C768.357 916.794 768.81 920.194 771.018 932.492C773.454 946.377 774.02 953.178 773.284 959.752C772.208 969.783 770.565 974.43 762.297 991.091C752.387 1011.15 748.197 1023 739.023 1057C735.625 1069.64 733.756 1074.74 732.284 1075.7C730.755 1076.72 714.049 1075.87 691.623 1073.66C689.131 1073.38 688.905 1073.49 688.565 1074.68C688.395 1075.42 688.339 1076.67 688.452 1077.35C688.622 1078.59 689.018 1078.76 692.303 1079.1C694.341 1079.33 704.252 1079.78 714.388 1080.12C724.469 1080.41 733.19 1080.8 733.699 1080.97C734.549 1081.26 734.719 1083.13 735.058 1097.3C735.285 1106.08 735.342 1120.98 735.285 1130.34C735.058 1145.92 734.945 1147.56 734.039 1148.58C733.076 1149.66 733.076 1149.94 733.812 1152.21C734.832 1155.21 736.078 1162.98 737.89 1178.05C740.212 1197.15 742.703 1206.56 749.386 1221.35C754.482 1232.69 756.351 1238.18 756.691 1243.23C756.918 1246.29 757.201 1247.31 757.824 1247.31C758.277 1247.31 764.449 1246.4 771.472 1245.32C820.06 1237.96 839.371 1236.37 853.982 1238.52C863.099 1239.88 869.668 1243.85 868.819 1247.48C867.573 1252.29 857.719 1256.32 833.028 1261.99C813.661 1266.46 810.093 1267.31 810.263 1267.54C810.376 1267.6 812.472 1267.77 814.963 1267.77C821.589 1267.88 952.971 1266.69 1006.03 1266.01C1031.4 1265.73 1073.71 1265.16 1100.04 1264.88C1126.37 1264.54 1178.36 1263.91 1215.56 1263.46C1252.77 1263.01 1304.64 1262.38 1330.81 1262.04C1408.73 1261.14 1466.72 1260.34 1506.36 1259.78C1526.92 1259.49 1562.03 1259.04 1584.4 1258.81L1625 1258.47L1624.66 1260.4C1624.43 1261.48 1624.26 1262.38 1624.21 1262.38C1623.87 1262.78 1554.1 1263.91 1504.09 1264.31C1469.21 1264.65 1429.23 1265.1 1415.24 1265.44C1401.25 1265.73 1360.71 1266.24 1325.2 1266.58C1289.64 1266.92 1249.77 1267.43 1236.52 1267.71C1223.27 1268.05 1181.36 1268.56 1143.36 1268.84C1105.36 1269.18 1063.06 1269.64 1049.36 1269.98C1035.65 1270.26 973.471 1270.88 911.121 1271.39C809.017 1272.24 797.635 1272.24 795.766 1271.45C794.124 1270.83 793.67 1270.26 793.67 1269.18C793.67 1265.95 795.936 1265.22 823.684 1259.21C835.747 1256.6 847.016 1253.71 853.132 1251.78C859.135 1249.86 864.458 1247.48 864.458 1246.74C864.458 1246.29 858.908 1244.42 853.698 1243.23C848.545 1242.04 829.744 1242.38 816.889 1243.85C805.676 1245.15 777.588 1249.06 763.543 1251.33L755.785 1252.52L754.256 1254.79C748.366 1263.23 732.906 1267.65 699.948 1270.37C681.43 1271.85 617.891 1271.85 603.11 1270.37C566.754 1266.69 542.516 1260.51 511.426 1247.08C507.406 1245.32 504.008 1243.91 503.894 1243.91C503.271 1243.91 505.933 1247.87 508.198 1250.31C511.879 1254.22 516.296 1257.22 526.037 1262.38C537.986 1268.67 540.194 1271.11 536.797 1274.23C534.701 1276.15 531.133 1276.72 516.749 1277.34C486.905 1278.65 108.22 1277.85 21.5195 1276.32L0 1275.93V1272.53L60.028 1272.58C93.0433 1272.58 199.961 1272.81 297.591 1273.04C430.842 1273.43 481.922 1273.38 502.309 1272.87C517.259 1272.47 530.341 1272.02 531.417 1271.85C533.229 1271.56 533.059 1271.39 526.603 1268.11C507.915 1258.7 501.686 1253.31 499.817 1244.98C499.421 1243.11 499.477 1242.21 500.1 1240.96C501.573 1238.07 504.121 1238.58 517.486 1244.25C540.534 1254.05 560.921 1259.66 587.141 1263.52C606.961 1266.41 614.436 1266.8 646.999 1266.8C699.155 1266.86 727.357 1264.31 741.797 1258.25C744.629 1257.05 751.764 1253.09 751.764 1252.69C751.764 1252.63 750.179 1252.92 748.197 1253.31C737.324 1255.52 716.993 1257.4 699.098 1257.85C688.395 1258.13 684.827 1258.02 680.75 1257.34C668.405 1255.18 660.59 1247.7 657.079 1234.84C655.946 1230.65 655.776 1228.72 655.776 1219.82C655.776 1209.73 656.116 1206.56 658.381 1195.91C661.609 1180.49 669.198 1158.16 674.181 1149.6C677.126 1144.56 677.466 1144.45 690.604 1144.5C696.663 1144.5 704.422 1144.84 707.876 1145.18C711.274 1145.52 716.71 1145.98 719.881 1146.2C726.847 1146.66 727.074 1146.37 723.166 1142.01C719.428 1137.87 715.804 1136.23 710.481 1136.23C705.724 1136.29 702.836 1136.85 692.02 1139.86C687.999 1140.99 683.865 1141.9 682.845 1141.9C678.938 1141.9 678.258 1137.99 679.221 1120.64C679.844 1109.82 681.656 1089.13 682.449 1084.03C682.789 1082.16 682.619 1081.88 681.486 1081.54C676.786 1080.07 675.031 1076.78 673.615 1066.92C671.803 1054.39 671.293 1044.14 670.953 1015.8C670.387 966.949 673.332 919.514 678.768 889.988C681.43 875.536 683.582 868.452 698.985 823.398C704.422 807.586 706.007 800.502 706.064 792.228C706.12 785.994 706.007 785.597 702.496 775.793C699.381 767.009 698.305 760.945 698.702 753.408C699.268 741.676 702.666 732.892 709.235 725.865C717.107 717.421 727.47 713.453 741.684 713.453C759.579 713.453 781.722 720.141 796.445 730.002C798.711 731.532 800.693 732.665 800.862 732.495C801.032 732.325 799.447 729.548 797.295 726.375C789.197 714.134 778.494 706.426 762.807 701.382C753.746 698.492 750.632 697.982 742.42 697.925C736.191 697.869 734.379 698.095 730.811 699.172C717.277 703.479 708.895 711.357 699.325 729.038C696.38 734.422 695.304 735.272 693.322 733.459C692.246 732.495 692.189 732.042 692.529 726.715C693.662 708.693 700.627 675.54 707.593 654.514C711.444 643.01 714.615 635.246 719.825 624.931L724.016 616.487L724.922 607.873C726.847 588.038 733.19 552.504 743.779 501.782C749.329 475.146 751.368 467.212 752.67 466.702C754.766 465.909 764.733 470.442 784.043 480.983C832.009 507.109 865.251 520.201 883.656 520.201C889.262 520.201 892.037 519.294 894.812 516.517C902.344 508.98 900.871 494.245 888.866 457.691C882.636 438.592 881.617 434.625 882.58 432.415C883.429 430.262 885.411 429.298 887.846 429.752C890.961 430.318 899.059 435.816 913.556 447.093C920.918 452.874 929.526 459.391 932.697 461.658C937.964 465.455 947.421 470.896 948.724 470.896C949.007 470.896 949.403 470.329 949.63 469.592C950.139 467.665 959.823 424.481 962.372 412.41C964.354 403.116 966.392 394.501 967.298 391.384C967.921 389.401 966.562 390.534 964.693 393.651C962.485 397.335 949.969 413.997 944.59 420.457C940.116 425.785 934.963 430.772 932.471 432.075C930.659 432.982 930.489 432.982 929.073 431.962C926.581 430.092 925.562 426.125 925.902 420.004C926.468 410.2 930.036 393.821 932.301 390.591C934.623 387.191 934.17 387.134 931.678 390.478C929.866 392.858 914.802 402.662 895.321 414.053C866.327 430.942 832.859 446.243 808.677 453.611C784.78 460.865 768.753 462.508 749.612 459.675C737.21 457.804 717.333 456.218 702.326 455.764L689.471 455.424V456.784C689.415 458.654 687.602 462.452 686.017 463.925C682.619 467.042 668.858 468.969 654.077 468.402C642.978 468.005 630.293 466.645 628.481 465.682C627.744 465.342 626.612 463.868 625.932 462.452C625.309 461.035 624.686 459.788 624.573 459.675C624.516 459.561 622.478 460.185 620.043 460.978C617.155 461.941 614.436 463.358 612.341 465.002C608.434 468.062 606.452 468.912 601.468 469.819C596.824 470.612 591.275 469.876 584.706 467.665C580.119 466.079 581.704 466.079 562.45 467.439C554.408 468.005 549.368 467.552 546.594 465.965C543.989 464.435 542.006 460.241 541.893 455.594C541.723 451.91 541.723 451.91 540.024 451.74C537.872 451.514 534.645 448.34 533.682 445.563C533.059 443.693 533.229 439.499 534.022 435.475C534.361 433.945 534.192 433.719 532.719 433.152C531.587 432.699 530.567 431.622 529.774 430.035C528.245 427.145 528.472 424.084 530.567 419.607L531.926 416.66L530.171 415.867C526.547 414.28 524.395 408.499 525.754 404.022C526.49 401.529 530.227 397.108 533.285 395.181C534.588 394.331 535.437 393.368 535.437 392.688C535.437 390.364 531.417 379.143 528.642 373.646C523.092 362.765 517.825 357.211 501.176 344.743C481.016 329.668 470.709 321.054 457.344 307.963C424.329 275.659 405.358 243.526 398.902 208.786C397.203 199.775 397.033 184.643 398.562 177.219C401.564 162.315 406.094 152.114 414.475 141.402C434.636 115.673 473.484 100.202 518.165 100.145C548.406 100.088 571.737 108.589 588.67 125.704C595.522 132.618 599.826 138.739 604.186 147.92C617.947 176.653 617.947 218.987 604.186 257.127C601.298 265.118 594.219 281.383 590.935 287.504C589.802 289.714 584.989 299.065 580.288 308.246C570.831 326.778 568.339 333.238 566.81 343.439C565.678 350.637 565.451 364.352 566.244 372.682L566.754 377.84L564.998 378.746C562.79 379.88 561.827 379.88 560.128 378.803C556.391 376.366 553.049 360.951 552.143 342.249C551.35 326.381 554.465 311.986 560.468 303.542C561.6 301.899 561.657 301.842 560.581 302.295C557.863 303.485 520.261 315.557 513.975 317.257C511.653 317.88 509.671 318.504 509.557 318.674C508.651 319.58 516.919 330.235 526.15 339.982C534.078 348.427 542.573 358.628 546.594 364.635C551.407 371.832 554.692 379.823 554.692 384.357C554.692 386.511 554.748 386.511 556.391 386.171C559.052 385.604 569.302 385.774 572.813 386.454C579.212 387.644 588.443 391.271 599.996 396.938C611.039 402.435 617.664 405.042 622.818 406.006C624.743 406.403 625.139 406.233 627.405 404.136C632.105 399.829 642.751 397.505 658.325 397.505C668.292 397.505 672.482 398.185 675.031 400.169C677.579 402.152 676.503 405.382 672.539 407.423C666.366 410.54 655.267 412.24 640.656 412.24H629.443L629.047 414.79C628.481 418.134 628.481 450.89 629.047 452.931C629.273 453.781 629.67 454.404 629.896 454.234C631.595 453.214 655.04 451.287 672.369 450.72L684.997 450.324L684.714 448.283C684.544 447.15 683.355 440.009 682.109 432.415C678.825 412.466 679.051 406.233 683.185 404.079C683.752 403.739 696.21 399.489 710.764 394.671C725.318 389.854 737.437 385.717 737.663 385.434C737.89 385.207 737.493 382.43 736.757 379.2C735.058 371.662 733.303 360.215 732.17 348.483C731.661 343.326 731.151 339.076 731.094 338.962C730.811 338.622 715.351 344.29 710.707 346.443C707.876 347.803 701.703 351.09 697.06 353.754C692.359 356.474 687.093 359.308 685.281 360.158C678.542 363.218 672.595 364.012 669.537 362.198C668.008 361.291 667.838 361.291 667.216 362.141C666.083 363.672 657.362 369.339 652.039 372.002C637.428 379.37 624.573 382.6 615.229 381.353C603.677 379.767 591.048 373.476 582.384 364.918C576.098 358.741 574.965 355.284 576.494 347.067C579.552 330.688 588.613 298.612 592.124 291.698C592.747 290.507 593.596 289.544 594.049 289.544C596.315 289.544 607.867 296.571 615.682 302.635L619.137 305.356L621.458 302.352C625.762 296.741 635.106 289.657 637.315 290.394C639.184 290.961 641.958 296.798 651.869 320.997C657.192 334.032 665.63 351.09 667.669 353.017C668.914 354.207 669.254 354.264 669.707 353.584C671.293 351.204 668.348 342.986 660.137 326.948C656.852 320.544 652.209 311.476 649.83 306.772C644.96 297.195 641.902 289.374 641.902 286.37C641.902 282.517 645.866 277.076 655.04 268.235C675.767 248.343 711.104 224.711 736.87 213.603C755.332 205.612 771.302 201.192 781.552 201.135C789.083 201.135 789.876 202.155 789.083 210.826C787.781 226.184 792.651 239.559 801.938 245.906C810.263 251.687 820.57 254.18 829.914 252.764C848.149 249.93 870.631 235.989 892.037 214.283C896.171 210.089 899.569 206.462 899.569 206.236C899.569 206.009 897.36 205.272 894.585 204.592C887.337 202.779 879.861 198.982 876.011 195.128C874.312 193.371 872.783 192.068 872.726 192.181C872.613 192.238 871.99 193.371 871.367 194.674C868.196 200.965 858.852 209.353 850.697 213.206C841.919 217.4 829.517 220.234 822.665 219.61C807.035 218.194 792.368 206.179 779.003 183.85C774.699 176.653 768.074 163.505 765.865 157.724L764.506 154.267L762.75 156.194C760.485 158.574 758.673 158.631 756.012 156.251C753.52 154.097 751.821 150.867 749.839 144.576C745.705 131.485 744.006 114.88 746.328 110.459C748.989 105.359 752.727 105.245 757.371 110.119C758.447 111.253 759.523 112.159 759.749 112.159C760.315 112.159 758.843 106.379 757.767 104.509C757.257 103.545 756.068 101.788 755.162 100.542C753.123 97.7647 751.538 93.741 749.669 86.6569C747.744 79.3462 747.177 63.6479 748.593 55.4871C752.104 34.9717 760.995 20.2936 774.643 12.4728C789.197 4.14193 807.432 -0.165172 827.195 0.00484537C831.329 0.0615177 836.2 0.288207 838.012 0.571569ZM812.075 5.67208C801.485 6.8622 788.914 10.2625 781.552 13.9463C767.451 21.0303 759.013 32.3648 754.596 50.2166C752.557 58.6041 752.047 65.4048 752.784 74.699C753.407 82.1231 755.389 91.9274 756.804 94.4777C757.031 94.8744 757.088 92.3242 756.974 88.7538C756.691 81.2164 757.597 73.3389 759.183 69.5985C762.184 62.6278 772.831 56.5072 790.556 51.6901C794.577 50.5566 799.56 49.3665 801.599 48.9698C805.223 48.3464 805.166 48.2897 795.369 47.9497C786.195 47.6663 777.701 46.5895 773.567 45.2861C772.604 44.946 771.188 44.096 770.339 43.3025C768.244 41.3757 768.867 39.8455 772.774 37.4653C780.815 32.5915 800.353 28.8511 817.852 28.8511C840.9 28.8511 853.868 33.9516 864.062 47.1563C870.348 55.2037 873.292 60.9843 878.389 74.7557L881.391 82.9732V76.1725C881.447 67.6717 880.201 54.7504 878.616 47.0996C876.577 36.8986 874.425 32.5915 868.875 27.3776C862.589 21.5403 854.151 17.9133 841.07 15.4764C833.085 14.0029 831.613 13.4362 831.613 11.906C831.613 10.7159 834.557 7.88231 837.446 6.35215L839.258 5.33205L833.312 5.04869C826.403 4.65198 819.267 4.87867 812.075 5.67208ZM842.656 66.6516C840.787 69.5419 838.238 73.4522 836.993 75.4358C835.747 77.4193 834.048 79.3462 833.198 79.8562C831.783 80.593 831.443 80.593 829.234 79.4595C827.875 78.8361 823.288 75.7191 819.041 72.5455C814.794 69.4285 811.056 66.8216 810.716 66.8216C810.093 66.8216 810.49 68.2951 812.585 73.9056C814.907 79.9696 815.303 82.1798 814.284 83.6533C813.774 84.5034 812.925 84.9567 811.905 84.9567C811.056 84.9567 805.903 83.4266 800.466 81.4997C786.082 76.5126 778.211 74.9257 774.699 76.2292C773.001 76.9093 771.471 81.103 769.829 90.0006C767.621 101.845 767.847 101.222 765.639 103.489C763.317 105.869 763.373 105.585 764.619 113.18C765.412 118.11 765.412 119.187 764.789 120.377C763.996 121.85 761.901 122.757 760.882 122.077C760.542 121.907 758.163 119.13 755.615 115.957L750.915 110.233L750.462 112.726C749.839 116.183 750.349 126.214 751.481 131.711C752.67 137.549 756.351 148.656 758.05 151.49L759.353 153.7L760.032 151.603C761.221 148.316 762.977 146.163 764.563 146.163C766.092 146.163 766.545 147.013 772.151 159.764C784.666 188.327 799.73 207.029 814.907 212.81C829.687 218.42 853.472 210.656 864.062 196.715C868.705 190.594 869.781 188.214 869.668 184.473C869.442 179.316 871.537 177.049 874.085 179.6C874.935 180.45 875.218 181.47 875.218 183.51C875.218 185.89 875.558 186.684 877.483 189.177C880.258 192.691 885.071 196.035 891.131 198.585C896.794 201.022 897.587 201.078 894.472 198.812C888.413 194.391 881.73 186.4 879.182 180.393C876.634 174.442 875.671 165.035 876.237 150.413C876.35 147.92 876.237 144.066 876.011 141.856C875.671 138.172 875.727 137.719 876.86 136.585C878.276 135.168 881.504 134.998 882.58 136.245C883.203 136.982 883.203 137.719 882.693 139.986C881.391 145.483 882.127 148.26 884.675 147.75C887.337 147.24 889.772 135.509 889.092 126.328C888.526 117.713 885.921 104.792 884.788 104.792C884.562 104.792 883.995 107.002 883.486 109.723C882.24 116.58 881.617 118.62 880.258 120.32C878.786 122.191 877.256 122.19 875.388 120.207C873.576 118.28 871.99 114.823 865.024 97.4247C858.002 79.7996 855.794 74.8124 853.302 70.2219C850.81 65.6315 847.412 61.0977 846.62 61.3244C846.336 61.381 844.524 63.8179 842.656 66.6516ZM504.574 105.415C470.879 108.306 443.81 118.79 425.915 135.905C397.656 162.995 394.542 202.722 417.137 247.04C433.786 279.683 460.742 308.529 506.613 342.646C512.049 346.67 517.825 351.204 519.468 352.677C526.773 359.364 533.965 371.436 538.042 384.074C539.232 387.701 540.251 390.761 540.251 390.874C540.421 391.158 549.538 385.887 549.878 385.264C550.444 384.414 548.576 378.633 546.367 374.269C542.516 366.619 534.192 355.851 522.526 343.439C515.22 335.675 510.294 329.725 506.556 324.114C503.724 319.92 503.271 319.467 502.082 320.147C501.573 320.374 500.1 320.771 498.798 320.997C494.211 321.734 488.887 318.334 476.146 306.432C446.641 278.946 423.253 245.793 414.532 218.987C411.134 208.559 410.058 202.382 410.115 193.201C410.172 181.243 412.947 172.346 419.742 162.201C434.24 140.552 462.158 125.421 496.363 120.547C504.347 119.414 527.849 119.64 535.154 120.887C556.957 124.571 572.134 132.278 583.177 145.313C599.316 164.241 604.073 194.334 596.598 230.208C591.388 255.427 580.741 280.533 570.944 290.904C567.886 294.134 566.527 294.701 564.262 293.511C562.28 292.434 563.073 286.824 567.943 265.855C575.475 233.552 578.873 206.689 577.457 190.821C576.324 178.239 573.889 170.362 569.755 165.602C566.98 162.428 560.978 159.538 553.842 157.951C545.687 156.137 529.604 156.194 517.599 158.007C490.813 162.031 462.668 170.645 446.302 179.826C440.978 182.83 441.941 183.227 452.984 182.773C465.329 182.207 475.126 181.13 512.785 176.256C534.588 173.422 552.71 172.459 556.447 173.876C562.507 176.143 559.902 181.13 551.407 183.737C545.574 185.55 535.947 187.364 514.767 190.707C481.186 195.978 464.027 200.908 459.893 206.406C458.364 208.446 459.157 210.599 461.932 212.016C468.274 215.303 482.828 214.736 512.219 209.863C548.462 203.969 556.56 203.855 560.128 209.409C562.337 212.753 558.146 218.364 550.897 221.877C543.026 225.674 531.926 229.131 506.556 235.705C483.111 241.713 470.936 246.19 470.426 248.853C469.69 252.65 483.847 251.46 516.183 245.113C539.968 240.409 549.935 239.446 554.352 241.429C556.164 242.279 557.523 244.603 557.523 246.87C557.523 248.683 555.031 254.407 554.239 254.407C553.049 254.407 553.049 256.221 554.239 258.431C555.088 260.131 555.484 262.115 555.711 265.968C555.994 272.089 555.201 274.469 552.03 276.906C548.519 279.57 540.591 280.646 534.248 279.286C531.36 278.663 531.19 278.663 530.114 280.08C529.435 280.873 527.962 281.95 526.716 282.46C521.903 284.5 508.142 283.99 502.818 281.667C500.836 280.76 500.327 280.703 499.138 281.383C498.401 281.78 496.419 282.403 494.777 282.743C493.191 283.083 491.832 283.593 491.832 283.877C491.832 285.804 504.178 312.156 505.99 314.14C506.556 314.707 512.615 312.95 533.738 306.149C557.523 298.442 562.28 297.138 564.205 297.818C565.055 298.102 565.961 299.008 566.244 299.915C566.754 301.219 566.357 302.409 563.299 308.416C557.976 318.957 557.24 322.527 557.297 338.282C557.353 345.31 557.636 353.074 558.033 355.567C559.109 362.538 560.921 371.889 561.261 372.229C561.487 372.399 561.431 370.416 561.147 367.752C560.185 357.381 561.261 343.893 563.752 333.975C565.508 327.288 569.076 318.844 575.078 307.396C597.334 265.118 604.299 247.153 608.207 222.104C609.453 214.113 609.963 192.918 609.113 184.587C605.262 147.296 586.971 121.85 556.277 111.139C541.44 105.926 522.696 103.829 504.574 105.415ZM494.72 125.534C470.766 129.105 447.264 139.816 433.05 153.7C423.763 162.768 417.42 174.216 415.438 185.494C414.532 190.424 414.702 199.718 415.721 205.159C417.93 216.947 425.745 235.025 434.579 249.08C447.264 269.199 468.274 293.511 486.452 309.039C492.229 313.97 496.023 316.18 498.741 316.18C499.93 316.18 500.893 316.067 500.893 315.897C500.893 315.783 499.251 312.383 497.269 308.416C495.287 304.449 492.059 297.478 490.133 292.944C488.151 288.411 486.509 284.67 486.452 284.557C486.396 284.5 484.357 284.16 481.979 283.933C474.956 283.14 473.484 281.553 473.541 274.809C473.597 268.065 476.032 264.608 480.28 265.458C482.998 265.968 484.697 267.895 487.528 273.676C489.624 277.983 490.077 278.493 491.549 278.663C494.551 278.89 494.89 278.153 493.191 274.923C490.36 269.482 490.813 263.758 494.154 262.058C498.458 259.791 504.517 262.398 507.179 267.555C509.048 271.182 509.104 273.676 507.406 275.943C505.99 277.813 505.99 277.926 507.122 278.323C510.577 279.57 525.81 279.456 525.81 278.153C525.81 277.87 524.621 277.076 523.092 276.453C516.863 273.676 514.428 272.316 512.615 270.559C507.349 265.402 509.784 259.848 517.316 259.791C522.809 259.791 527.849 263.985 530.85 271.069C532.209 274.129 533.286 274.696 539.062 275.149C543.989 275.603 547.216 274.809 549.538 272.599C551.067 271.126 551.294 270.615 551.294 267.782C551.294 264.211 550.274 258.941 549.595 258.941C549.368 258.941 547.783 259.564 546.027 260.301C542.233 262.001 537.703 262.908 535.267 262.398C533.116 261.945 530.907 258.998 530.907 256.561C530.907 254.237 532.379 251.687 534.475 250.44C537.193 248.74 542.912 248.91 546.537 250.723C548.066 251.517 549.595 252.14 549.991 252.14C551.011 252.14 553.106 248.343 552.879 246.926C552.483 243.979 543.422 244.603 519.581 249.307C494.947 254.124 489.171 255.031 480.166 255.371C472.974 255.654 471.955 255.597 469.577 254.52C466.575 253.217 464.82 250.44 465.443 248.003C465.952 245.793 469.124 243.129 473.994 240.806C480.053 237.915 484.583 236.555 508.821 230.265C520.204 227.318 532.549 223.861 536.287 222.614C544.045 220.007 552.37 216.04 555.258 213.603C558.089 211.109 557.07 210.543 549.821 210.316C542.573 210.033 537.136 210.656 516.749 213.886C493.927 217.513 483.677 218.704 475.126 218.704C463.291 218.704 458.421 217.173 455.816 212.696C451.625 205.612 457.118 199.605 472.182 194.618C479.94 192.068 492.625 189.517 520.147 184.984C541.61 181.413 557.75 177.899 554.692 177.446C551.011 176.879 526.716 179.203 496.363 183C453.833 188.327 442.111 188.781 438.543 185.21C437.977 184.643 437.467 183.397 437.467 182.49C437.467 173.706 487.019 156.591 524.564 152.34C533.625 151.32 551.52 151.943 557.24 153.474C570.265 156.931 576.834 163.448 580.119 176.199C583.516 189.517 583.233 210.203 579.269 233.722C576.268 251.857 570.378 278.946 567.773 286.994C567.207 288.864 566.98 289.941 567.32 289.374C567.717 288.751 568.962 286.824 570.095 285.01C576.324 275.319 581.817 263.135 586.688 248.457C592.634 230.491 595.069 216.267 595.069 199.435C595.069 188.214 594.503 182.547 592.351 174.216C587.764 155.967 576.777 141.969 560.694 133.865C551.011 128.991 536.57 125.421 521.846 124.401C516.07 124.004 500.723 124.627 494.72 125.534ZM771.528 207.142C755.672 209.863 732.623 219.44 711.84 231.908C697.739 240.352 680.524 252.48 669.084 262.001C659.061 270.332 646.432 283.537 646.432 285.69C646.432 288.297 650.906 298.385 660.873 318.164C669.084 334.429 672.652 342.136 673.501 345.423C675.087 351.204 675.031 351.884 673.332 355.284C672.539 356.814 671.916 358.231 671.916 358.401C671.916 358.571 672.765 358.684 673.841 358.684C677.239 358.684 684.431 355.681 692.586 350.92C703.346 344.63 713.312 339.869 722.713 336.582L730.528 333.862L730.924 324.171C731.434 309.436 732.68 304.336 736.248 301.502C738.003 300.085 739.872 299.972 742.137 301.162C744.289 302.295 745.761 304.506 746.894 308.189C749.159 315.953 746.441 325.191 739.702 332.388L736.304 336.072L736.644 342.986C736.871 346.783 737.55 353.867 738.173 358.684C739.249 366.562 739.985 370.812 742.137 380.617L742.76 383.564L745.139 382.713C749.952 380.9 762.297 374.609 764.223 372.966L766.205 371.266L766.148 364.862C766.092 358.514 765.355 353.584 762.184 337.149C760.259 327.458 760.032 318.39 761.561 316.067C762.128 315.273 763.204 314.423 763.996 314.253C767.451 313.346 770.565 317.2 777.871 331.028C783.364 341.456 786.988 347.52 789.027 350.07L790.612 351.997L797.068 345.253C800.636 341.569 807.771 333.862 812.925 328.138C841.976 295.608 848.319 288.637 854.548 282.29C861.457 275.149 867.969 269.709 869.611 269.709C870.914 269.709 872.953 271.806 873.009 273.279C873.122 275.659 872.839 276.849 871.027 281.1C869.272 285.124 860.267 302.579 855.341 311.306C854.095 313.46 853.189 315.33 853.302 315.387C853.415 315.5 857.493 311.306 862.476 306.092C901.494 264.892 924.826 246.36 946.572 239.389C953.084 237.292 962.088 236.839 968.374 238.256C977.605 240.296 986.156 246.36 993.178 255.824C996.576 260.414 1002.58 272.032 1005.01 278.776C1006.15 282.063 1006.32 282.29 1006.49 280.76C1006.83 278.04 1005.52 267.328 1004.33 262.568C1002.86 256.957 998.445 247.776 995.047 243.243C990.856 237.745 981.003 228.735 973.924 224.031C959.2 214.226 945.892 210.259 919.446 207.879L905.628 206.632L904.552 207.992C900.928 212.413 892.716 220.8 886.997 225.844C870.008 240.749 854.604 250.383 840.617 254.861C826.742 259.338 815.926 258.828 804.77 253.274C790.443 246.19 783.477 232.758 784.157 213.433L784.44 206.236H780.646C778.55 206.236 774.473 206.632 771.528 207.142ZM536.513 255.031C534.645 256.901 535.437 257.524 539.458 257.354C543.705 257.184 545.518 256.051 543.705 254.634C542.006 253.387 537.929 253.614 536.513 255.031ZM514.484 264.892C514.484 265.345 515.051 266.252 515.73 266.932C517.372 268.519 526.037 272.599 526.263 271.919C526.66 270.956 523.488 267.385 520.827 265.685C517.995 263.871 514.484 263.418 514.484 264.892ZM496.136 268.859C496.702 271.692 497.665 273.279 499.534 274.356C501.063 275.263 501.346 275.263 502.479 274.469C504.404 273.109 504.121 270.332 501.856 268.179C498.175 264.608 495.287 264.948 496.136 268.859ZM478.581 270.049C478.411 270.559 478.241 272.542 478.241 274.526C478.241 278.606 478.864 279.343 482.205 279.343C483.847 279.343 484.017 279.23 483.677 277.983C483.111 275.716 479.94 269.142 479.43 269.142C479.147 269.142 478.751 269.539 478.581 270.049ZM591.275 309.379C584.196 332.672 579.892 351.147 580.741 354.207C582.214 359.308 591.105 367.129 600.392 371.549C606.508 374.439 615.229 376.82 619.76 376.82C630.406 376.82 646.262 370.982 659.117 362.425C661.836 360.555 664.214 358.741 664.384 358.344C664.497 358.004 663.705 356.247 662.629 354.547C658.211 347.633 651.642 333.522 641.619 309.379C638.561 302.069 635.899 295.891 635.729 295.665C635.503 295.438 632.445 298.102 628.934 301.672L622.534 308.133L625.366 311.703C628.254 315.443 630.01 318.844 630.01 320.827C630.01 324.284 626.215 328.081 622.818 328.081C619.42 328.081 615.342 324.058 614.153 319.524C613.474 317.087 614.097 313.573 615.512 311.363C616.022 310.626 616.418 309.889 616.418 309.719C616.418 309.209 608.547 303.315 602.261 299.065C596.088 294.985 595.748 294.815 595.352 295.948C595.182 296.628 593.313 302.692 591.275 309.379ZM738.286 305.526C737.267 306.829 736.474 312.836 736.134 321.564L735.851 330.065L737.097 328.648C739.022 326.494 741.514 320.657 742.25 316.747C743.043 312.723 742.25 307.679 740.665 305.922C739.532 304.676 739.079 304.619 738.286 305.526ZM619.023 314.253C618.061 316.747 618.854 319.807 621.119 322.244C622.704 324.001 624.233 323.887 624.913 322.074C625.423 320.827 625.253 320.147 624.063 318.107C622.591 315.67 620.552 313.346 619.76 313.346C619.533 313.346 619.193 313.743 619.023 314.253ZM860.494 326.664C845.657 331.368 831.103 343.666 823.968 357.551C822.948 359.591 820.287 367.129 820.287 368.092C820.287 368.205 820.966 368.319 821.816 368.319C826.969 368.319 829.574 370.642 828.215 373.986C826.629 377.84 822.722 378.52 819.041 375.629L816.832 373.816L806.526 376.253C800.863 377.556 791.519 379.937 785.742 381.467C757.937 388.947 745.082 391.498 741.854 390.364C740.495 389.854 739.702 389.854 739.192 390.251C738.796 390.591 736.531 391.384 734.209 392.064C722.883 395.408 686.753 407.536 685.564 408.329C684.261 409.236 684.205 409.52 684.544 414.507C684.771 418.644 689.018 447.603 689.811 450.324C689.924 450.89 692.473 451.06 699.778 451.06C714.445 451.06 735.002 452.647 750.915 454.914C761.165 456.388 776.682 456.218 785.459 454.574C812.472 449.474 843.618 437.062 881.447 416.32C900.022 406.176 923.637 391.441 931.338 385.32C935.755 381.75 936.322 381.523 937.398 382.6C938.474 383.677 938.247 385.094 935.246 395.975C933.717 401.642 932.074 408.953 931.565 412.183C930.602 418.7 930.432 428.051 931.225 427.711C934.056 426.748 959.313 394.048 968.884 379.03C969.903 377.386 973.924 366.052 973.584 365.712C973.471 365.598 971.376 367.242 968.884 369.452C960.106 377.216 950.819 383.054 947.025 383.167C944.816 383.224 944.023 382.26 938.53 373.136C928.393 356.134 919.106 345.876 905.968 337.035C889.319 325.758 874.255 322.357 860.494 326.664ZM989.554 328.478C988.025 332.388 984.004 343.95 984.174 343.95C984.287 343.95 985.193 342.703 986.213 341.116C988.365 337.716 989.894 333.862 990.63 329.895C991.196 326.721 990.573 325.928 989.554 328.478ZM985.137 365.202C980.776 371.096 976.586 377.216 975.849 378.803C974.151 382.26 971.999 391.214 962.145 435.646C957.954 454.801 954.104 471.292 953.707 472.312C950.762 479.283 941.588 475.146 915.878 455.141C909.536 450.21 902.853 445.053 900.984 443.636C897.417 440.859 887.337 434.059 886.884 434.059C886.544 434.059 888.413 440.689 891.754 451.06C897.926 470.386 899.116 474.239 900.701 480.303C907.214 505.863 904.099 520.031 891.131 524.054C887.167 525.245 878.446 525.245 871.99 523.941C852.169 520.144 824.76 508.413 783.194 486.027C779.117 483.874 771.188 479.68 765.525 476.79L755.219 471.576L754.822 473.616C754.652 474.749 753.123 481.72 751.481 489.031C742.647 527.851 734.152 572.566 731.151 595.858C730.415 601.752 729.565 607.136 729.339 607.76C728.829 609.176 729.112 608.893 733.586 603.452C738.966 596.765 745.931 591.098 753.18 587.471C767.168 580.5 784.157 580.953 810.546 589.114C840.617 598.465 875.444 615.977 934.679 651.737C942.608 656.554 949.856 660.805 950.819 661.202C952.008 661.768 950.762 660.125 946.232 655.534C932.867 641.82 921.994 629.295 920.069 625.271C918.823 622.664 919.559 620.624 922.051 619.604C923.92 618.811 924.599 618.811 929.979 619.887C937.398 621.418 950.536 625.781 975.453 635.019C994.764 642.16 1015.09 649.017 1015.55 648.564C1015.66 648.45 1013.34 644.03 1010.39 638.816C994.254 610.253 985.08 586.791 978.568 557.661C968.714 513.457 968.657 472.823 978.285 421.534C981.173 406.119 988.195 376.99 993.008 360.328C994.99 353.471 995.104 352.337 993.914 353.584C993.461 354.037 989.497 359.251 985.137 365.202ZM967.581 388.437C967.581 388.721 967.921 388.381 968.374 387.587C968.827 386.794 969.167 385.887 969.167 385.604C969.167 385.264 968.827 385.66 968.374 386.454C967.921 387.247 967.581 388.097 967.581 388.437ZM557.41 391.271C547.386 393.425 537.533 397.675 533.002 401.869C530.624 404.136 530.341 404.646 530.341 406.913C530.341 408.273 530.737 410.03 531.247 410.71C532.719 412.807 534.305 412.24 538.156 408.273C541.667 404.646 545.178 402.322 547.216 402.322C548.632 402.322 551.294 404.986 551.294 406.403C551.294 408.386 546.31 412.977 541.893 415.073C537.419 417.227 535.72 419.211 534.248 424.311C533.455 426.975 534.192 429.525 535.721 429.525C536.174 429.525 538.099 428.165 539.911 426.465C543.932 422.724 546.594 421.931 548.915 423.688C553.559 427.145 550.784 432.075 543.026 434.342C539.741 435.305 538.439 436.666 538.212 439.443C537.929 443.013 538.326 444.826 539.628 446.357C540.761 447.66 541.1 447.773 541.837 447.15C542.346 446.753 542.912 445.677 543.082 444.77C543.592 442.503 546.027 439.726 547.5 439.726C549.708 439.783 551.86 442.276 551.86 444.77C551.86 445.45 550.558 447.377 549.029 449.077C547.443 450.777 546.197 452.704 546.197 453.327C546.197 456.104 547.5 460.071 548.802 461.318C550.105 462.508 550.897 462.678 555.994 462.905C559.222 463.018 565.961 462.622 571.114 462.111L580.458 461.091L585.895 462.848C597.9 466.702 602.94 466.362 609.34 461.261C612.398 458.824 615.342 457.351 620.099 455.878C623.327 454.857 624.063 454.404 623.95 453.554C623.837 452.987 623.61 446.867 623.44 440.009C623.101 429.071 623.327 423.348 624.516 412.296C624.63 411.39 624.007 411.106 620.666 410.483C615.059 409.463 611.548 408.103 599.486 402.095C578.986 391.951 567.886 389.061 557.41 391.271ZM655.21 402.322C641.619 403.172 634.653 404.419 631.992 406.573C630.972 407.423 631.822 407.479 642.751 407.196C655.153 406.913 661.213 406.119 668.235 403.909L672.199 402.605L669.934 402.265C666.423 401.699 665.517 401.699 655.21 402.322ZM653.794 456.218C643.318 456.784 631.652 458.031 630.519 458.711C629.67 459.278 629.953 461.091 630.972 461.488C633.294 462.395 648.698 463.528 658.778 463.528C675.37 463.528 683.129 461.885 684.714 458.088C685.167 457.068 685.507 455.934 685.507 455.651C685.507 455.027 671.35 455.254 653.794 456.218ZM761.958 605.153C756.634 606.853 753.01 610.083 743.666 621.474C741.571 624.024 738.513 627.255 736.984 628.672C734.605 630.825 733.699 631.279 731.887 631.279C729.509 631.279 726.111 628.842 725.375 626.631C725.205 626.008 724.808 625.725 724.582 625.951C723.846 626.688 717.673 640.97 715.238 647.43C708.329 665.735 702.496 688.574 699.721 708.183C699.042 712.66 698.305 717.307 698.022 718.554C697.739 719.801 697.683 720.821 697.909 720.821C698.079 720.821 699.495 718.837 701.08 716.4C704.931 710.45 712.463 703.026 718.069 699.739C720.561 698.265 725.035 696.225 727.98 695.262C732.623 693.675 734.379 693.391 740.721 693.165C745.988 692.995 749.612 693.165 753.293 693.845C768.583 696.508 783.42 703.876 793.444 713.794C798.937 719.177 803.128 725.411 807.715 734.989C809.584 738.899 812.585 744.057 814.397 746.437C821.023 755.051 824.93 763.268 827.649 773.81C830.367 784.294 830.763 787.751 830.763 800.729C830.763 813.707 830.31 817.221 827.875 822.718C824.307 830.765 812.981 836.829 797.918 838.756C794.803 839.096 792.651 839.606 792.934 839.89C793.217 840.173 794.973 840.966 796.842 841.646C799.673 842.723 801.372 842.893 808.111 842.95C817.512 842.95 820.683 842.156 826.063 838.529C832.519 834.166 834.331 830.482 839.541 810.93C845.487 788.714 852.679 770.523 858.285 763.269C864.571 755.278 870.234 752.444 875.331 754.711C883.146 758.168 888.752 773.47 898.436 818.014C902.514 836.886 904.779 845.953 906.421 850.317C907.497 853.208 907.893 853.718 910.272 854.794C912.65 855.871 913.783 855.985 924.486 855.985C940.229 855.928 956.992 854.058 998.105 847.71C1038.48 841.476 1049.86 840.06 1054.79 840.513C1057.11 840.74 1058.02 841.193 1059.83 842.95L1062.04 845.103L1063.17 843.177C1064.99 840.23 1065.21 836.886 1064.14 829.122C1062.78 819.261 1057.74 797.782 1053.6 784.577C1053.04 782.707 1051.62 778.003 1050.49 774.093C1045.67 757.828 1034.97 726.035 1028.12 707.786C1021.21 689.254 1016.91 679.053 1011.58 668.229L1008.69 662.448L1006.03 666.869C992.782 688.914 983.042 698.492 970.243 701.892C966.279 702.912 957.841 702.912 953.707 701.836C941.532 698.662 931.905 691.975 914.576 674.746C898.096 658.368 887.28 649.187 872.5 639.269C849.961 624.138 826.799 613.653 803.015 607.816C796.219 606.116 792.651 605.493 780.929 603.849C776.681 603.226 765.582 604.019 761.958 605.153ZM729.395 719.404C713.029 723.655 703.402 737.256 703.402 755.958C703.402 762.588 704.082 765.875 707.706 776.643C713.199 792.965 712.237 800.502 700.514 833.882C690.66 861.935 686.64 874.913 684.205 886.588C676.333 923.991 672.992 1008.04 677.296 1056.89C678.428 1069.24 679.448 1074 681.486 1076.33L683.072 1078.03L683.808 1074.51C684.205 1072.53 684.884 1070.6 685.337 1070.15C686.696 1068.85 690.547 1068.9 712.52 1070.55C721.297 1071.23 728.886 1071.62 729.339 1071.45C730.302 1071.06 731.094 1068.51 735.908 1050.37C743.496 1022.09 748.593 1007.81 757.824 989.448C764.449 976.3 767.111 969.216 768.244 962.132C769.263 955.558 768.527 944.79 766.262 932.209C762.467 911.41 761.505 896.789 763.034 885.171C766.715 857.911 776.172 833.146 795.483 799.992C802.448 788.091 805.393 780.214 806.695 770.126C807.828 761.398 807.092 748.817 805.28 744.397C803.921 741.223 796.445 735.329 787.441 730.285C778.72 725.468 760.485 719.858 749.499 718.611C743.27 717.874 733.699 718.271 729.395 719.404ZM697.003 724.051C697.173 724.618 697.286 724.278 697.286 723.371C697.286 722.408 697.173 722.011 697.003 722.351C696.89 722.748 696.89 723.541 697.003 724.051ZM1057.96 852.527C1055.36 854.228 1044.77 857.345 1034.91 859.328C1025.06 861.312 1013.23 862.842 992.159 864.769C971.942 866.639 959.71 868.112 959.313 868.736C959.03 869.189 969.11 909.653 972.961 923.708C974.377 928.865 976.699 936.686 978.058 941.05L980.606 949.097L982.305 948.247C986.609 946.094 992.216 951.364 994.99 960.092C998.502 971.256 994.651 978.397 987.629 973.806C985.533 972.446 982.362 967.402 979.983 961.622C978.794 958.675 977.662 956.351 977.435 956.408C976.529 956.748 970.243 965.929 968.204 969.953C965.543 975.28 962.881 983.327 961.579 990.015C960.446 995.852 959.936 1007.64 960.559 1012.68L961.012 1016.37L967.355 1021.18C970.809 1023.85 976.869 1028.44 980.833 1031.5C988.308 1037.17 993.745 1040.45 995.727 1040.45C998.105 1040.45 1013.17 1030.99 1025.63 1021.75C1045.11 1007.24 1058.7 992.905 1063.17 982.251C1064.87 978.113 1065.44 971.426 1065.83 950.061C1066.23 930.849 1065.49 902.569 1064.08 884.887C1063.4 876.387 1059.95 851.734 1059.38 851.734C1059.32 851.734 1058.64 852.074 1057.96 852.527ZM982.702 954.254C983.098 957.995 989.78 970.746 991.309 970.746C992.102 970.746 991.989 967.006 991.083 963.605C990.064 959.808 987.629 954.878 986.099 953.574C984.401 952.101 982.475 952.498 982.702 954.254ZM953.424 1027.48C949.46 1042.89 950.309 1055.53 955.802 1061.76C961.975 1068.85 978.454 1069.58 991.593 1063.35C994.99 1061.71 996.18 1060.4 996.746 1057.68C997.086 1055.92 997.029 1055.92 992.612 1054.39C973.301 1047.54 961.975 1037.39 957.048 1022.37C955.859 1018.63 955.689 1018.86 953.424 1027.48ZM933.377 1056.72C929.016 1066.24 928.733 1068.9 931.735 1075.14C935.076 1082.28 949.007 1101.94 960.22 1115.32C963.221 1118.94 965.996 1122.4 966.279 1123.02C966.619 1123.65 967.581 1127.84 968.374 1132.32C971.036 1147.17 973.811 1153.91 979.191 1158.9C984.854 1164.06 992.159 1166.44 1005.13 1167.46C1032.37 1169.55 1050.49 1162.98 1050.37 1151.02C1050.32 1146.49 1048.62 1142.63 1042.79 1133.34C1039.95 1128.86 1035.42 1120.7 1032.71 1115.26C1028.23 1106.31 1025.63 1100.02 1014.53 1071.62C1012.66 1066.81 1010.73 1062.33 1010.28 1061.76C1009.49 1060.69 1009.37 1060.69 1005.69 1062.27C1003.65 1063.18 1001.16 1064.48 1000.26 1065.28C999.294 1066.13 996.972 1069.92 994.594 1074.68C992.385 1079.1 990.12 1083.35 989.497 1084.2C988.195 1086.07 988.648 1086.19 992.159 1084.66C1003.09 1079.95 1008.07 1080.18 1012.26 1085.45C1016.68 1091.12 1021.15 1104.32 1021.72 1113.62L1022.06 1118.49L1020.13 1119.91C1016.74 1122.46 1009.32 1124.1 997.369 1124.9C987.968 1125.58 982.758 1125.01 980.776 1123.14C980.04 1122.46 979.417 1121.44 979.417 1120.93C979.417 1118.38 985.08 1114.13 995.16 1109.08C998.332 1107.5 1000.94 1106.08 1000.94 1106.02C1000.94 1105.91 998.445 1105.91 995.387 1106.08C988.251 1106.36 981.399 1105.46 979.474 1104.04C977.152 1102.28 976.812 1100.53 978.115 1096.73C978.738 1094.92 979.417 1093.05 979.644 1092.59C979.927 1091.85 979.191 1091.57 975.793 1091.06C968.318 1089.87 962.202 1086.36 954.613 1078.88C948.441 1072.81 939.946 1060.97 937.115 1054.56C936.605 1053.32 935.982 1052.35 935.812 1052.35C935.586 1052.35 934.51 1054.34 933.377 1056.72ZM687.206 1083.92C687.206 1084.2 686.583 1090.61 685.79 1098.26C684.997 1105.91 684.205 1117.87 683.978 1124.84C683.638 1137.19 683.638 1137.53 684.714 1137.25C685.281 1137.08 688.962 1136 692.869 1134.87C702.043 1132.15 709.178 1130.96 712.916 1131.41C719.655 1132.32 725.261 1135.55 728.376 1140.31C729.452 1141.9 730.018 1142.29 730.301 1141.78C730.585 1141.39 730.698 1132.89 730.585 1122.91C730.471 1112.94 730.358 1100.41 730.301 1095.09L730.245 1085.34L715.917 1084.94C708.102 1084.71 699.325 1084.32 696.55 1084.09C689.131 1083.52 687.206 1083.47 687.206 1083.92ZM994.424 1088.85L985.42 1091.91L983.778 1095.71C982.872 1097.81 982.305 1099.85 982.475 1100.3C982.702 1100.87 984.061 1101.09 987.742 1101.15C999.294 1101.21 1004.33 1102.51 1004.79 1105.51C1005.07 1107.44 1001.5 1110.73 994.934 1114.64C984.91 1120.59 985.816 1119.91 987.119 1120.36C988.535 1120.81 1002.81 1120.08 1007 1119.28C1012.38 1118.21 1016.91 1116.79 1017.19 1116C1017.59 1114.92 1016.4 1108.46 1014.7 1102.79C1011.92 1093.27 1007.51 1085.79 1004.67 1085.79C1004.05 1085.79 999.408 1087.15 994.424 1088.85ZM679.618 1149.66C679.051 1150.06 675.937 1156.8 673.048 1164C668.008 1176.58 663.704 1191.71 661.666 1203.95C659.967 1213.98 659.91 1226.4 661.609 1232.69C664.95 1244.98 670.67 1250.59 682.109 1252.75C686.017 1253.54 689.188 1253.6 699.098 1253.37C705.781 1253.14 714.049 1252.75 717.503 1252.41C725.771 1251.61 751.028 1248.44 751.991 1248.1C752.5 1247.87 752.614 1247.08 752.274 1244.87C751.311 1238.13 749.782 1233.59 744.799 1222.94C737.947 1208.2 735.228 1197.04 731.944 1169.67C731.264 1164.23 730.245 1157.88 729.735 1155.5L728.659 1151.25L726.79 1151.42C725.714 1151.53 719.768 1151.13 713.539 1150.62C691.793 1148.87 681.486 1148.58 679.618 1149.66Z" fill="#AFFF3F"></path></svg> 