<?xml version="1.0" encoding="UTF-8"?> <svg xmlns="http://www.w3.org/2000/svg" width="1744" height="898" viewBox="0 0 1744 898" fill="none"><path d="M1284.03 3.18262C1429.78 3.18262 1544.75 52.2463 1629.95 149.881C1704.85 235.833 1742.5 336.01 1742.5 450.052C1742.5 564.096 1705.27 663.85 1630.37 749.801C1545.17 847.436 1430.19 896.5 1284.44 896.5C1139.52 896.5 1024.54 847.437 939.345 749.801L939.344 749.8L937.393 747.555C896.601 700.343 867.058 648.292 849.143 592.6L847.467 587.391L846.252 592.726C843.781 603.575 840.483 613.603 837.166 623.266C806.544 710.473 756.089 777.491 685.401 824.401C617.18 869.225 536.523 891.873 442.954 891.873C372.394 891.873 309.918 880.48 254.709 858.124C261.887 853.197 269.341 848.299 276.461 843.743L276.472 843.736L276.483 843.729C316.313 817.246 357.388 791.603 398.879 767.222L398.882 767.22C438.684 743.696 622.491 647.849 655.287 632.703C715.448 605.799 776.014 581.002 838.231 559.148C841.361 558.091 844.592 556.93 847.807 555.774C851.024 554.618 854.224 553.466 857.318 552.421L857.319 552.422C880.14 544.855 903.368 537.288 926.594 530.145L926.595 530.146C967.996 518.101 1010.21 508.109 1052.45 499.762C1060.13 537.324 1077.58 571.969 1103.95 603.691L1103.95 603.695C1150.73 659.557 1210.52 687.513 1284.03 687.513C1357.53 687.513 1418.14 659.563 1464.93 604.12L1464.93 604.119C1502.52 559.685 1521.33 508.45 1521.33 450.052C1521.33 390.398 1502.52 339.153 1464.92 295.55L1464.92 295.547L1463.79 294.253C1415.95 239.689 1355.72 212.169 1284.03 212.169C1234.31 212.169 1189.18 226.566 1148.66 254.922L1148.65 254.926C1108.56 283.281 1079.3 320.963 1062.18 368.364C1052.15 395.451 1047.56 422.543 1047.56 450.052C1047.56 459.216 1047.93 468.409 1049.03 477.265C1005.5 480.227 961.983 485.243 918.463 492.314L918.438 492.318C899.754 495.684 881.472 499.05 863.187 502.84C851.545 504.947 840.324 507.474 829.137 509.993C761.835 524.304 695.371 542.402 629.335 563.021H629.333L629.304 563.03C629.283 563.037 629.252 563.045 629.211 563.058C629.129 563.082 629.009 563.118 628.856 563.163C628.551 563.254 628.115 563.383 627.592 563.537C626.544 563.845 625.149 564.251 623.756 564.644C622.358 565.037 620.977 565.411 619.953 565.661C619.486 565.775 619.119 565.855 618.867 565.901H442.378V402.34H829.94L830.106 401.028C834.659 364.964 843.351 327.645 857.421 290.329L857.423 290.322C877.708 235.794 904.605 189.268 938.515 149.882C1023.71 52.2462 1138.69 3.1827 1284.03 3.18262ZM450.841 1.5C548.544 1.5 631.243 26.6623 699.026 77.332L699.029 77.333C747.031 113.081 788.172 165.811 822.823 235.199L621.407 319.812C604.043 280.823 583.782 252.026 560.579 232.295L560.569 232.287L558.995 230.984C525.827 203.853 486.562 190.298 440.878 190.298C393.485 190.298 353.304 202.677 320.314 227.4C287.853 251.728 262.465 287.925 243.989 335.771L243.114 338.059C228.932 374.409 222.26 412.024 222.26 450.472C222.26 530.729 247.288 597.563 297.388 651.284C306.783 661.594 317.288 670.805 328.567 678.214C290.361 695.52 251.774 713.244 214.376 731.777L214.372 731.779C186.05 745.919 158.116 760.069 130.18 775.441C117.251 763.081 105.112 749.512 93.7656 734.731L93.7598 734.724C32.1306 655.52 1.5 560.795 1.5 450.472C1.50008 328.813 37.5129 226.123 109.071 143.145C190.936 48.8933 304.655 1.50009 450.841 1.5Z" stroke="#21300A" stroke-width="3"></path></svg> 