<?xml version="1.0" encoding="UTF-8"?> <svg xmlns="http://www.w3.org/2000/svg" width="106" height="88" viewBox="0 0 106 88" fill="none"><path d="M98.2176 59.8086C95.067 61.9923 94.5607 64.3703 94.4782 65.0291C93.9784 65.3207 93.5134 65.5799 93.0897 65.8089C93.7568 64.7051 94.3869 63.5798 94.9692 62.4286C95.934 60.4695 96.7705 58.45 97.4724 56.3873C97.5506 56.1605 97.6266 55.9337 97.6983 55.7069C98.2459 54.0114 99.0346 52.4001 100.091 50.9616C100.162 50.8644 100.232 50.7693 100.299 50.6722C109.121 45.8728 105.073 36.0841 105.073 36.0841C105.206 38.2462 103.107 39.8963 100.951 43.836C99.115 47.1904 99.7299 49.5425 99.9559 50.1689C99.504 50.8622 99.0824 51.467 98.7174 51.9703C98.8608 51.3396 98.9955 50.7089 99.1194 50.0739C99.5387 47.9399 99.7712 45.7735 99.8777 43.6071L99.9125 42.7949C99.9277 42.5249 99.9364 42.2528 99.932 41.9828V40.3564C99.9168 39.8143 99.882 39.2743 99.8603 38.7321C99.8451 38.4621 99.8408 38.19 99.8169 37.92L99.743 37.11C99.693 36.5744 99.7234 36.0322 99.8299 35.5052L100.462 32.4122V32.4165C106.894 24.7294 99.5127 17.1027 99.5127 17.1027C100.436 19.0661 99.0933 21.3642 98.5436 25.818C98.0764 29.6086 99.517 31.5698 99.9559 32.0709C99.7734 32.9695 99.5865 33.7535 99.4192 34.3929L99.3475 33.8896C99.2845 33.3518 99.1563 32.8248 99.0607 32.2913L98.9064 31.4943C98.8565 31.2286 98.8043 30.9629 98.7348 30.7016C98.4719 29.6518 98.2329 28.5978 97.8961 27.5697L97.6614 26.7943L97.5441 26.4076L97.4072 26.0253L96.8574 24.5004C96.5098 23.6149 96.1469 22.7336 95.758 21.8653C95.0627 20.3059 94.6281 18.6384 94.5325 16.9364C94.5108 16.5411 94.4782 16.1524 94.4412 15.7722V15.7765C97.9048 6.38954 88.3747 1.66796 88.3747 1.66796C89.9065 3.20798 89.4176 5.82364 90.4041 10.2018C91.2428 13.9276 93.2636 15.2949 93.8481 15.621C94.0327 16.8954 94.1327 17.9645 94.1848 18.7097C94.1696 18.6838 94.1566 18.6557 94.1414 18.6298L93.7546 17.9192C93.6264 17.6816 93.4765 17.457 93.3396 17.2237L92.4987 15.8413L91.5926 14.5022C91.4405 14.2797 91.2928 14.0551 91.1363 13.8348L90.6496 13.189C90.1499 12.4999 89.6219 11.8304 89.0765 11.1781C88.3138 10.2191 87.2708 8.8324 86.3648 7.83236C85.9389 7.36366 85.5673 6.84744 85.2936 6.27506C81.3281 -2.03414 71.6459 0.30289 71.6459 0.30289C73.8209 0.441125 75.205 2.71552 78.8706 5.33334C81.7692 7.40254 84.0659 7.27942 84.9024 7.13471C85.0024 7.16711 85.1241 7.20598 85.2262 7.23838L86.3343 8.39178C87.7815 9.975 89.1677 11.6165 90.3802 13.3812L90.8452 14.0335C90.9951 14.256 91.1363 14.4827 91.2819 14.7074L92.1467 16.0573L92.5118 16.6945C91.5492 15.8824 90.5779 15.1739 89.6197 14.5605H89.6219C84.4005 6.01587 74.7444 10.4761 74.7444 10.4761C76.9107 10.2471 78.662 12.258 82.7209 14.2214C86.1736 15.8932 88.5094 15.1782 89.1286 14.9255C90.5106 15.7312 91.6622 16.5195 92.3271 16.9947C92.7464 17.295 93.1006 17.6816 93.3331 18.1395C93.3331 18.1416 93.3353 18.1438 93.3374 18.146L93.7003 18.8587C94.702 20.7443 95.5081 22.725 96.2338 24.7272L96.7358 26.2435L96.8596 26.6215L96.9661 27.0059L97.179 27.7749C97.4854 28.7944 97.694 29.8376 97.9243 30.8744C97.9873 31.1335 98.0308 31.3949 98.0721 31.6562V31.6692C97.4224 30.6735 96.7401 29.7642 96.0383 28.9412H96.0405C93.5634 19.2518 83.0164 20.7076 83.0164 20.7076C85.1567 21.118 86.2387 23.5501 89.5415 26.6107C92.351 29.2134 94.7954 29.2091 95.4625 29.1486C96.2186 29.9672 96.8401 30.6994 97.2964 31.2653C97.933 32.0515 98.3502 32.9954 98.4436 33.9998C98.4436 34.0041 98.4436 34.0106 98.4436 34.0149L98.6261 35.5959L98.6718 35.9912L98.6978 36.3886L98.75 37.1835L98.8021 37.9762C98.8195 38.2397 98.8173 38.5053 98.8239 38.771C98.8326 39.3002 98.8521 39.8315 98.8499 40.3607L98.8108 41.9504C98.8108 42.2161 98.7934 42.4796 98.7717 42.7431L98.7174 43.5358C98.6305 44.6805 98.5088 45.821 98.3415 46.9549C98.1133 46.0024 97.8483 45.0952 97.5484 44.2421C98.7152 34.3129 88.3399 31.9306 88.3399 31.9306C90.1912 33.0732 90.3302 35.7298 92.314 39.7581C94.0045 43.188 96.2882 44.0499 96.9335 44.2313C97.1812 44.849 97.3941 45.4214 97.5723 45.9268C98.0112 47.1688 98.1047 48.5079 97.82 49.7931C97.82 49.7995 97.8178 49.806 97.8157 49.8125C97.3594 51.8752 96.8009 53.9185 96.06 55.897C95.3278 57.8776 94.4695 59.8086 93.4895 61.6769C93.1984 62.2191 92.8942 62.7526 92.5835 63.2817C92.7638 62.1629 92.8638 61.083 92.905 60.0505V60.0548C97.6505 51.2381 88.8766 45.2421 88.8766 45.2421C90.1781 46.9809 89.3264 49.5015 89.6892 53.9747C89.9978 57.7804 91.8056 59.4155 92.3379 59.8172C92.3379 59.962 92.3379 60.1067 92.3379 60.2471C92.3227 62.6683 91.5774 65.0378 90.1673 67.0119C90.1607 67.0227 90.1542 67.0314 90.1455 67.0422C88.9266 68.7615 87.5533 70.3663 86.1105 71.8955C85.7412 72.2692 85.3935 72.6644 85.0046 73.023L83.8638 74.1116C83.8464 74.0965 83.8508 74.1008 83.8334 74.0856C84.1811 73.4701 84.4961 72.861 84.7786 72.2584C92.59 65.9622 86.8406 57.0547 86.8406 57.0547C87.3621 59.1585 85.5956 61.1542 84.1854 65.4179C82.986 69.0444 84.0159 71.2497 84.3484 71.8242C84.118 72.3728 83.8964 72.8761 83.6878 73.3232C83.1794 74.4204 82.4341 75.3967 81.4759 76.1397C81.4715 76.1441 81.4672 76.1462 81.4607 76.1505C79.8136 77.4551 78.0971 78.6755 76.2828 79.7338C75.2268 80.3537 74.149 80.9347 73.0539 81.4769C73.5102 81.0082 73.9361 80.5373 74.325 80.0643C81.8083 76.6344 79.0531 68.4072 79.0531 68.4072C79.0401 70.1827 77.2301 71.4117 75.2441 74.5133C73.5537 77.1527 73.923 79.1096 74.0708 79.6323C73.8274 79.9541 73.595 80.2501 73.3777 80.5222C72.6628 81.4121 71.7415 82.1227 70.6855 82.5676C70.6812 82.5698 70.6746 82.572 70.6703 82.5741C68.7343 83.3798 66.7483 84.0602 64.7276 84.6174L64.7058 84.6239H64.6993C64.1518 84.7816 63.7476 85.2654 63.7346 85.8291C63.7128 86.7968 64.6124 87.4123 65.4533 87.1575C67.574 86.5138 69.6534 85.7406 71.672 84.8399C73.6884 83.9306 75.6287 82.8657 77.5017 81.6994C78.6294 81.0017 79.7202 80.2436 80.7762 79.4444C82.2125 78.358 83.9355 77.7122 85.7325 77.5588H85.7303C95.1213 81.1421 100.015 71.7421 100.015 71.7421C98.4414 73.2411 95.8188 72.7163 91.3993 73.6299C87.6381 74.4075 86.2322 76.3946 85.8954 76.9691C84.9915 77.0858 84.1919 77.1592 83.5336 77.2089C84.1311 76.6862 84.7091 76.1419 85.2914 75.6041L86.4539 74.4356C86.8471 74.0533 87.2013 73.6321 87.5772 73.2303C89.0417 71.5974 90.4258 69.8911 91.647 68.0724C91.6709 68.0357 91.6969 67.999 91.7208 67.9623C92.3205 67.0724 93.1397 66.3553 94.1001 65.8693C94.2565 65.7894 94.4108 65.7095 94.5651 65.6296H94.5629C104.615 65.2581 105.397 54.7026 105.397 54.7026C104.543 56.6962 101.925 57.2383 98.222 59.8043L98.2176 59.8086Z" fill="#AFFF3F"></path><path d="M7.78117 59.8129C10.9313 61.9966 11.4375 64.3746 11.5201 65.0334C12.0197 65.325 12.4847 65.5842 12.9083 65.8131C12.2413 64.7094 11.6113 63.5841 11.0291 62.4329C10.0645 60.4738 9.23023 58.4543 8.52634 56.3916C8.44813 56.1648 8.37209 55.938 8.3004 55.7112C7.75293 54.0157 6.96431 52.4044 5.90847 50.9659C5.83677 50.8687 5.76725 50.7736 5.6999 50.6764C-3.12049 45.8792 0.926897 36.0883 0.926897 36.0883C0.794374 38.2504 2.89302 39.9006 5.04815 43.8403C6.88392 47.1946 6.2691 49.5468 6.04316 50.1732C6.49504 50.8665 6.91651 51.4713 7.28149 51.9745C7.13811 51.3438 7.00341 50.7132 6.87958 50.0781C6.46028 47.9441 6.22782 45.7777 6.12137 43.6113L6.08661 42.7992C6.0714 42.5292 6.06271 42.2571 6.06923 41.9871V40.3607C6.08444 39.8185 6.1192 39.2785 6.14092 38.7364C6.15613 38.4664 6.16048 38.1943 6.18437 37.9243L6.25824 37.1143C6.30821 36.5786 6.27779 36.0365 6.17134 35.5095L5.53914 32.4165V32.4208C-0.891494 24.7336 6.48853 17.107 6.48853 17.107C5.56521 19.0703 6.90782 21.3685 7.45747 25.8222C7.92456 29.6129 6.48418 31.5741 6.04533 32.0752C6.22782 32.9737 6.41466 33.7578 6.58194 34.3971L6.65364 33.8939C6.71664 33.356 6.84482 32.829 6.94041 32.2955L7.09466 31.4985C7.14462 31.2328 7.19676 30.9672 7.26628 30.7058C7.52916 29.6561 7.76813 28.6021 8.10487 27.5739L8.3395 26.7985L8.45682 26.4119L8.59369 26.0296L9.14333 24.5047C9.49094 23.6191 9.85374 22.7379 10.2426 21.8696C10.94 20.3101 11.3723 18.6427 11.4679 16.9406C11.4896 16.5454 11.5222 16.1566 11.5592 15.7765V15.7808C8.09836 6.38944 17.627 1.67002 17.627 1.67002C16.0954 3.21004 16.5842 5.8257 15.5979 10.2039C14.7593 13.9297 12.7388 15.297 12.1544 15.6231C11.9698 16.8975 11.8698 17.9666 11.8177 18.7118C11.8329 18.6859 11.8459 18.6578 11.8611 18.6319L12.2457 17.9213C12.3739 17.6837 12.5238 17.459 12.6606 17.2258L13.5014 15.8434L14.4073 14.5043C14.5594 14.2818 14.7071 14.0572 14.8636 13.8368L15.3502 13.191C15.8499 12.502 16.3778 11.8324 16.9231 11.1801C17.6856 10.2211 18.7285 8.83447 19.6344 7.83443C20.0602 7.36573 20.4339 6.84951 20.7054 6.27713C24.6703 -2.03424 34.3531 0.30279 34.3531 0.30279C32.1785 0.441025 30.7946 2.71542 27.1296 5.33324C24.2314 7.40245 21.9351 7.27933 21.0987 7.13461C20.9966 7.16701 20.8771 7.20589 20.775 7.23829L19.667 8.39169C18.2201 9.97491 16.834 11.6164 15.6218 13.3811L15.1568 14.0334C15.0069 14.2559 14.8657 14.4827 14.7202 14.7073L13.8555 16.0572L13.4905 16.6944C14.4529 15.8823 15.4241 15.1738 16.3821 14.5604H16.38C21.6005 6.01578 31.2551 10.476 31.2551 10.476C29.0892 10.2471 27.3381 12.2579 23.2799 14.2213C19.8277 15.8931 17.4923 15.1782 16.8731 14.9254C15.4892 15.7311 14.34 16.5195 13.6752 16.9946C13.2559 17.2949 12.9018 17.6815 12.6693 18.1394C12.6693 18.1416 12.6671 18.1437 12.665 18.1459L12.3022 18.8587C11.3006 20.7443 10.4946 22.7249 9.76902 24.7272L9.26717 26.2434L9.14333 26.6214L9.03688 27.0059L8.82397 27.7748C8.51765 28.7943 8.30909 29.8375 8.0788 30.8743C8.0158 31.1335 7.97235 31.3948 7.9289 31.6562V31.6691C8.57848 30.6734 9.26282 29.7641 9.96237 28.9412H9.9602C12.4369 19.2518 22.9822 20.7075 22.9822 20.7075C20.8423 21.1179 19.7604 23.55 16.4582 26.6106C13.6491 29.2133 11.205 29.209 10.5381 29.1485C9.78205 29.9671 9.16289 30.6993 8.70449 31.2652C8.07011 32.0514 7.65082 32.9953 7.5574 33.9997C7.5574 34.004 7.5574 34.0105 7.5574 34.0148L7.37491 35.5959L7.32929 35.9911L7.30322 36.3886L7.25108 37.1834L7.19894 37.9761C7.18156 38.2396 7.18373 38.5053 7.17721 38.771C7.16852 39.3001 7.14897 39.8315 7.15114 40.3607L7.19025 41.9504C7.19025 42.216 7.20763 42.4795 7.22935 42.743L7.28366 43.5357C7.37056 44.6805 7.49222 45.8209 7.65951 46.9549C7.88762 46.0024 8.15267 45.0952 8.45247 44.242C7.28584 34.3129 17.6596 31.9305 17.6596 31.9305C15.8086 33.0731 15.6696 35.7298 13.6861 39.758C11.9958 43.188 9.71253 44.0498 9.0673 44.2312C8.81963 44.849 8.60672 45.4213 8.42858 45.9268C7.98973 47.1687 7.89631 48.5079 8.18091 49.793C8.18091 49.7995 8.18308 49.806 8.18526 49.8125C8.64148 51.8752 9.19982 53.9185 9.94064 55.897C10.6728 57.8776 11.5309 59.8086 12.5107 61.6769C12.8018 62.219 13.106 62.7525 13.4167 63.2817C13.2363 62.1629 13.1364 61.0829 13.0951 60.0505V60.0548C8.35037 51.238 17.123 45.2421 17.123 45.2421C15.8216 46.9808 16.6733 49.5014 16.3104 53.9746C16.002 57.7804 14.1944 59.4155 13.6622 59.8172C13.6622 59.9619 13.6622 60.1066 13.6622 60.247C13.6774 62.6683 14.4225 65.0377 15.8325 67.0119C15.839 67.0227 15.8455 67.0313 15.8542 67.0421C17.073 68.7614 18.446 70.3663 19.8886 71.8955C20.2579 72.2691 20.6055 72.6644 20.9944 73.023L22.1349 74.1116C22.1545 74.0964 22.148 74.1008 22.1654 74.0856C21.8178 73.4701 21.5049 72.861 21.2225 72.2583C13.4123 65.9622 19.1608 57.0547 19.1608 57.0547C18.6394 59.1584 20.4056 61.1542 21.8156 65.4179C23.0148 69.0444 21.985 71.2497 21.6527 71.8242C21.8829 72.3728 22.1067 72.8761 22.3131 73.3232C22.8215 74.4204 23.5666 75.3967 24.5247 76.1397C24.5291 76.144 24.5356 76.1462 24.5399 76.1505C26.1867 77.4551 27.903 78.6755 29.7192 79.7338C30.775 80.3537 31.8526 80.9347 32.9475 81.4769C32.4913 81.0082 32.0655 80.5373 31.6766 80.0643C24.1945 76.6343 26.9492 68.4072 26.9492 68.4072C26.9623 70.1827 28.772 71.4117 30.7576 74.5133C32.4479 77.1527 32.0785 79.1096 31.9308 79.6323C32.1741 79.9541 32.4066 80.25 32.6238 80.5222C33.3386 81.4121 34.2597 82.1227 35.3156 82.5676C35.3199 82.5698 35.3264 82.572 35.3308 82.5741C37.2665 83.3798 39.2522 84.0602 41.2726 84.6174L41.2943 84.6239H41.3008C41.8483 84.7816 42.2524 85.2654 42.2654 85.8291C42.2872 86.7968 41.3877 87.4123 40.547 87.1575C38.4266 86.5138 36.3475 85.7406 34.3293 84.8399C32.3132 83.9306 30.3731 82.8657 28.5004 81.6994C27.3729 81.0017 26.2823 80.2436 25.2264 79.4444C23.7904 78.358 22.0676 77.7121 20.2709 77.5588H20.2731C10.8835 81.1421 5.99102 71.7421 5.99102 71.7421C7.56392 73.2411 10.1861 72.7163 14.605 73.6299C18.3656 74.4075 19.7713 76.3946 20.108 76.9691C21.0118 77.0858 21.8112 77.1592 22.4695 77.2089C21.8721 76.6862 21.2942 76.1419 20.712 75.6041L19.5497 74.4355C19.1564 74.0532 18.8023 73.6321 18.4265 73.2303C16.9622 71.5974 15.5783 69.8911 14.3574 68.0724C14.3313 68.0357 14.3074 67.999 14.2835 67.9623C13.6839 67.0724 12.8648 66.3553 11.9046 65.8693C11.7482 65.7894 11.5918 65.7095 11.4397 65.6296H11.4418C1.39181 65.258 0.609711 54.7025 0.609711 54.7025C1.46351 56.6961 4.08138 57.2383 7.78334 59.8043L7.78117 59.8129Z" fill="#AFFF3F"></path></svg> 