<?xml version="1.0" encoding="UTF-8"?> <svg xmlns="http://www.w3.org/2000/svg" width="440" height="83" viewBox="0 0 440 83" fill="none"><path fill-rule="evenodd" clip-rule="evenodd" d="M41.4028 82.9364C64.4044 82.9364 82.9973 64.3999 82.9973 41.4682C82.9973 18.5365 64.4044 0 41.5945 0C18.5929 0 0 18.5365 0 41.4682C0 64.2088 18.5929 82.7453 41.4028 82.9364ZM37.1852 29.8093V54.8431C33.16 54.652 29.9014 53.3143 27.6012 51.4033C25.3011 49.1102 24.151 46.0526 24.151 42.4218C24.151 38.5998 25.3011 35.7333 27.6012 33.4402C29.9014 31.147 33.16 30.0004 37.1852 29.8093ZM54.8198 33.2491C57.12 35.5422 58.2701 38.4087 58.2701 42.2307C58.2701 46.0526 57.12 48.9191 54.8198 51.0211C52.328 53.3143 49.2611 54.4609 45.2358 54.652V29.6182C49.2611 29.8093 52.5196 30.9559 54.8198 33.2491ZM21.2758 56.1808C25.3011 59.8116 30.4764 61.5315 36.9936 61.7226V66.8823H45.2358V61.9137C51.9446 61.7226 57.12 59.8116 60.9536 56.3719C64.7872 52.9321 66.704 48.1547 66.704 42.4218C66.704 36.4977 64.7872 31.9114 60.9536 28.4716C56.9283 24.8408 51.7529 23.1209 45.2358 22.9298V18.1523H36.9936V22.7387C30.4764 22.9298 25.1094 24.8408 21.2758 28.2805C17.4422 31.7203 15.5254 36.4977 15.5254 42.2307C15.5254 48.1547 17.4422 52.741 21.2758 56.1808Z" fill="white"></path><path d="M89.501 68.7877L66.8828 71.2719L79.342 45.856L89.501 68.7877Z" fill="white"></path><path d="M131.306 27.7068C127.664 27.8979 124.789 29.0445 122.872 30.9555C120.764 32.8665 119.805 35.1596 119.805 37.835C119.805 40.5104 120.764 42.8035 122.872 44.9056C124.981 46.8166 127.856 47.7721 131.306 47.9632V27.7068ZM139.932 19.8718C143.19 20.0629 145.874 20.6362 148.366 21.5917C150.857 22.5472 152.966 23.8849 154.691 25.4137C156.416 26.9424 157.758 28.8534 158.716 30.9555C159.675 33.0576 160.058 35.3507 160.058 37.835C160.058 40.3193 159.675 42.6124 158.716 44.7145C157.758 46.8166 156.416 48.7276 154.691 50.2564C152.966 51.7851 150.857 53.1228 148.366 54.0783C145.874 55.0338 142.998 55.6071 139.932 55.7982V61.5311H131.306V55.7982C128.047 55.6071 125.364 55.0338 122.872 54.0783C120.38 53.1228 118.272 51.7851 116.547 50.2564C114.822 48.7276 113.48 46.8166 112.521 44.7145C111.563 42.6124 111.18 40.3193 111.18 37.835C111.18 35.3507 111.563 33.0576 112.521 30.9555C113.48 28.8534 114.822 26.9424 116.547 25.4137C118.272 23.8849 120.38 22.5472 122.872 21.5917C125.364 20.6362 128.239 20.0629 131.306 19.8718V15.4766H139.932V19.8718ZM139.932 47.7721C143.574 47.581 146.449 46.6255 148.366 44.7145C150.474 42.8035 151.432 40.5104 151.432 37.6439C151.432 34.9685 150.474 32.6754 148.366 30.7644C146.257 28.8534 143.574 27.7068 139.932 27.5157V47.7721ZM195.135 28.089V61.1489H186.893V40.3193L172.709 61.1489H164.85V28.089H173.092V48.9187L187.085 28.089H195.135ZM231.746 28.089V61.1489H223.504V48.1543H210.086V61.1489H201.844V28.089H210.086V40.3193H223.504V28.089H231.746ZM252.256 27.7068C254.173 27.7068 255.898 28.089 257.431 28.6623C258.965 29.2356 260.306 30.1911 261.456 31.3377C262.606 32.4843 263.565 33.822 264.14 35.3507C264.907 36.8795 265.098 38.5994 265.098 40.5104V61.1489H258.965L257.431 57.9003C256.664 58.6647 255.898 59.2379 254.939 59.6201C254.173 60.1934 253.214 60.5756 252.064 60.9578C250.914 61.34 249.572 61.5311 248.231 61.5311C244.589 61.5311 241.905 60.5756 239.988 58.8558C238.072 57.1359 237.113 54.8427 237.113 52.1673C237.113 50.4475 237.496 49.1098 238.072 47.7721C238.838 46.4344 239.797 45.2878 241.33 44.3323C242.863 43.3768 244.972 42.6124 247.464 42.0392C249.956 41.4659 253.214 41.0837 257.048 41.0837C257.048 39.1727 256.473 37.835 255.514 36.8795C254.556 35.924 253.214 35.3507 251.681 35.3507C250.531 35.3507 249.764 35.5418 248.997 35.924C248.422 36.3062 247.847 36.6884 247.464 37.0706C247.08 37.6439 246.697 38.2172 246.505 38.7905H238.263C238.455 37.2617 238.838 35.7329 239.605 34.3952C240.372 33.0576 241.33 31.911 242.48 30.9555C243.63 30 245.164 29.2356 246.697 28.6623C248.231 28.089 250.147 27.7068 252.256 27.7068ZM249.764 55.0338C251.872 55.0338 253.598 54.4605 254.939 53.1228C256.281 51.7851 257.048 50.2564 257.048 48.1543V46.6255C254.556 46.6255 252.639 46.8166 251.106 47.0077C249.572 47.1988 248.422 47.581 247.655 47.9632C246.889 48.3454 246.314 48.9187 245.93 49.492C245.547 50.0653 245.547 50.6385 245.547 51.4029C245.547 52.3584 245.93 53.1228 246.697 53.8872C247.464 54.6516 248.422 55.0338 249.764 55.0338ZM301.517 28.089V61.1489H293.275V48.1543H279.858V61.1489H271.615V28.089H279.858V40.3193H293.275V28.089H301.517ZM338.512 48.9187C338.128 50.6386 337.553 52.1673 336.595 53.6961C335.636 55.2249 334.486 56.5626 333.145 57.7092C331.803 58.8557 330.269 59.8112 328.544 60.5756C326.819 61.34 324.902 61.5311 322.986 61.5311C320.685 61.5311 318.577 61.1489 316.468 60.1934C314.552 59.238 312.826 58.0914 311.293 56.5626C309.76 55.0338 308.61 53.3139 307.651 51.2118C306.693 49.1098 306.309 47.0077 306.309 44.5234C306.309 42.2303 306.693 39.9371 307.651 38.0261C308.61 35.924 309.76 34.2041 311.293 32.6754C312.826 31.1466 314.552 30 316.468 29.0445C318.577 28.089 320.685 27.7068 322.986 27.7068C324.902 27.7068 326.819 28.089 328.544 28.8534C330.269 29.6178 331.803 30.3822 333.145 31.7199C334.486 32.8665 335.636 34.2041 336.595 35.7329C337.553 37.2617 338.128 38.7905 338.512 40.3193H330.269C329.886 39.3638 329.311 38.5994 328.736 38.0261C328.161 37.4528 327.394 36.8795 326.436 36.4973C325.477 35.924 324.327 35.7329 322.986 35.7329C320.685 35.7329 318.577 36.4973 317.043 38.2172C315.51 39.9371 314.743 42.0392 314.743 44.7145C314.743 47.3899 315.51 49.6831 317.043 51.2118C318.577 52.9317 320.685 53.6961 322.986 53.6961C324.327 53.6961 325.477 53.505 326.436 52.9317C327.394 52.3584 328.161 51.9762 328.736 51.4029C329.503 50.6385 329.886 49.8742 330.269 49.1098H338.512V48.9187ZM373.397 28.089V61.1489H365.155V40.3193L351.162 61.1489H343.112V28.089H351.354V48.9187L365.347 28.089H373.397ZM410.583 48.9187C410.2 50.6386 409.625 52.1673 408.666 53.6961C407.708 55.2249 406.558 56.5626 405.216 57.7092C403.874 58.8557 402.341 59.8112 400.616 60.5756C398.891 61.34 396.974 61.5311 395.057 61.5311C392.757 61.5311 390.648 61.1489 388.54 60.1934C386.623 59.238 384.898 58.0914 383.365 56.5626C381.831 55.0338 380.681 53.3139 379.723 51.2118C378.764 49.1098 378.381 47.0077 378.381 44.5234C378.381 42.2303 378.764 39.9371 379.723 38.0261C380.681 35.924 381.831 34.2041 383.365 32.6754C384.898 31.1466 386.623 30 388.54 29.0445C390.648 28.089 392.757 27.7068 395.057 27.7068C396.974 27.7068 398.891 28.089 400.616 28.8534C402.341 29.6178 403.874 30.3822 405.216 31.7199C406.558 32.8665 407.708 34.2041 408.666 35.7329C409.625 37.2617 410.2 38.7905 410.583 40.3193H402.341C401.957 39.3638 401.382 38.5994 400.807 38.0261C400.232 37.4528 399.466 36.8795 398.507 36.4973C397.549 35.924 396.399 35.7329 395.057 35.7329C392.757 35.7329 390.648 36.4973 389.115 38.2172C387.582 39.9371 386.815 42.0392 386.815 44.7145C386.815 47.3899 387.582 49.6831 389.115 51.2118C390.648 52.9317 392.757 53.6961 395.057 53.6961C396.399 53.6961 397.549 53.505 398.507 52.9317C399.466 52.3584 400.232 51.9762 400.807 51.4029C401.574 50.6385 401.957 49.8742 402.341 49.1098H410.583V48.9187ZM412.116 28.089H439.91V35.924H430.134V61.1489H421.892V35.924H412.116V28.089Z" fill="white"></path></svg> 