<?xml version="1.0" encoding="UTF-8"?> <svg xmlns="http://www.w3.org/2000/svg" width="511" height="144" viewBox="0 0 511 144" fill="none"><path fill-rule="evenodd" clip-rule="evenodd" d="M224.286 13.1956L220.68 30.1945C220.146 32.7892 220.565 34.9832 221.939 36.7766C223.313 38.5318 225.297 39.4094 227.892 39.4094H236.133L235.218 43.7021H242.086L243.002 39.4094H251.93C255.059 39.4094 257.406 38.6845 258.97 37.2345C260.573 35.7845 261.699 33.6096 262.347 30.7096L265.953 13.7107C266.487 11.116 266.068 8.94108 264.694 7.18585C263.32 5.39248 261.336 4.49579 258.742 4.49579H250.442L251.358 0.203125H244.49L243.574 4.49579H234.703C231.574 4.49579 229.189 5.23985 227.548 6.72797C225.907 8.17794 224.82 10.3338 224.286 13.1956ZM237.507 33.1135H231.612C228.483 33.1135 227.224 31.6827 227.834 28.8209L230.925 14.2831C231.23 12.9857 231.726 12.089 232.413 11.593C233.138 11.0588 234.283 10.7917 235.847 10.7917H242.2L237.507 33.1135ZM250.786 33.1135H244.375L249.069 10.7917H255.021C258.15 10.7917 259.409 12.2226 258.799 15.0844L255.708 29.6222C255.403 30.9195 254.888 31.8353 254.163 32.3695C253.476 32.8655 252.35 33.1135 250.786 33.1135ZM364.762 13.3674L356.52 52.0014H363.102L365.22 42.2714H376.037C378.632 42.2714 380.654 41.6799 382.104 40.4971C383.592 39.276 384.604 37.3682 385.138 34.7735L388.171 20.5219C388.629 18.5377 388.229 16.7634 386.969 15.199C385.71 13.5964 384.012 12.7951 381.875 12.7951H377.182C374.702 12.7951 372.718 13.4247 371.23 14.6839C370.543 15.2181 370.066 15.8286 369.799 16.5154H369.513L369.341 13.3674H364.762ZM374.607 36.2616H366.479L369.169 23.5554C369.551 21.8383 370.18 20.6173 371.058 19.8923C371.936 19.1673 373.233 18.8048 374.95 18.8048H378.155C380.673 18.8048 381.704 19.9114 381.246 22.1245L378.956 32.942C378.651 34.2012 378.174 35.0788 377.526 35.5748C376.877 36.0327 375.904 36.2616 374.607 36.2616ZM481.185 38.8381L480.498 42.2722H487.08L494.807 32.8284H500.244L498.241 42.2722H504.823L510.947 13.3683H495.322C492.727 13.3683 490.686 13.9788 489.198 15.1998C487.748 16.3827 486.756 18.2715 486.221 20.8662L485.477 24.1286C484.943 26.2654 485.248 28.116 486.393 29.6804C486.851 30.3291 487.462 30.9015 488.225 31.3975L481.185 38.8381ZM501.446 27.1048H495.265C492.746 27.1048 491.716 25.9983 492.174 23.7852L492.46 22.4115C492.727 21.1523 493.185 20.2938 493.834 19.8359C494.482 19.3399 495.474 19.0919 496.81 19.0919H503.163L501.446 27.1048ZM207.252 92.4104L215.723 52.3456H244.341L235.87 92.4104H229.002L236.156 58.6415H221.275L214.12 92.4104H207.252ZM314.232 75.2393H325.679L326.308 72.263C326.766 70.0499 325.736 68.9434 323.218 68.9434H319.211C317.914 68.9434 316.941 69.1914 316.292 69.6874C315.643 70.1453 315.167 71.0038 314.861 72.263L314.232 75.2393ZM305.646 84.6831L308.68 70.4315C309.214 67.8368 310.206 65.948 311.656 64.7652C313.144 63.5441 315.186 62.9336 317.78 62.9336H326.938C329.075 62.9336 330.773 63.7349 332.032 65.3375C333.291 66.902 333.692 68.6763 333.234 70.6604L331.059 80.9628H313.03L312.572 83.0805C312.343 84.1108 312.476 84.9311 312.972 85.5416C313.507 86.114 314.403 86.4002 315.663 86.4002H328.769L327.51 92.4099H311.942C309.805 92.4099 308.107 91.6277 306.848 90.0633C305.589 88.4988 305.188 86.7054 305.646 84.6831ZM331.062 92.9831L332.321 86.9734H333.465C334.915 86.9734 336.022 86.6491 336.785 86.0004C337.548 85.3136 338.197 84.1116 338.731 82.3946L344.741 63.5069H365.346L359.221 92.4108H352.639L357.504 69.5166H349.205L344.111 84.9129C343.195 87.7747 342.013 89.8352 340.563 91.0944C339.113 92.3535 337.128 92.9831 334.61 92.9831H331.062ZM270.594 86.4011L267.961 98.9929H274.486L275.917 92.4108H294.232L292.801 98.9929H299.383L302.073 86.4011H298.353L303.218 63.5069H282.613L277.233 80.6775C276.737 82.3564 275.783 83.8445 274.371 85.1419C273.684 85.7524 273.093 86.1721 272.597 86.4011H270.594ZM291.771 86.4011H279.751L279.809 86.0004C280.305 85.7715 280.743 85.428 281.125 84.9702C282.232 83.6728 283.033 82.2419 283.529 80.6775L287.077 69.5166H295.377L291.771 86.4011ZM253.679 86.9734H255.74C257.457 86.9734 258.773 86.6109 259.689 85.8859C260.605 85.1609 261.215 83.9399 261.52 82.2229L261.864 80.3913H254.48C253.297 80.3913 252.439 80.5821 251.905 80.9637C251.371 81.3071 250.97 82.0321 250.703 83.1386L250.588 83.6537C250.13 85.8669 251.161 86.9734 253.679 86.9734ZM243.663 85.2563L244.35 82.1656C244.922 79.5709 245.933 77.6822 247.383 76.4993C248.833 75.2783 250.855 74.6678 253.45 74.6678H263.066L263.466 72.8362C263.695 71.806 263.543 71.0047 263.008 70.4324C262.512 69.8218 261.635 69.5166 260.376 69.5166H249.329L250.588 63.5069H264.096C266.233 63.5069 267.931 64.3081 269.19 65.9107C270.449 67.4752 270.85 69.2495 270.392 71.2336L265.927 92.4108H261.349L261.12 89.2628H260.833C260.414 90.026 259.88 90.6556 259.231 91.1516C257.705 92.3726 255.74 92.9831 253.336 92.9831H249.959C247.822 92.9831 246.124 92.2009 244.865 90.6365C243.606 89.072 243.205 87.2787 243.663 85.2563ZM377.417 86.9734H375.357C372.838 86.9734 371.808 85.8669 372.266 83.6537L372.38 83.1386C372.648 82.0321 373.048 81.3071 373.582 80.9637C374.117 80.5821 374.975 80.3913 376.158 80.3913H383.541L383.198 82.2229C382.893 83.9399 382.282 85.1609 381.366 85.8859C380.451 86.6109 379.134 86.9734 377.417 86.9734ZM366.027 82.1656L365.341 85.2563C364.883 87.2787 365.283 89.072 366.542 90.6365C367.802 92.2009 369.5 92.9831 371.636 92.9831H375.013C377.417 92.9831 379.382 92.3726 380.909 91.1516C381.557 90.6556 382.091 90.026 382.511 89.2628H382.797L383.026 92.4108H387.605L392.07 71.2336C392.527 69.2495 392.127 67.4752 390.868 65.9107C389.608 64.3081 387.91 63.5069 385.774 63.5069H372.266L371.007 69.5166H382.053C383.312 69.5166 384.19 69.8218 384.686 70.4324C385.22 71.0047 385.373 71.806 385.144 72.8362L384.743 74.6678H375.128C372.533 74.6678 370.511 75.2783 369.061 76.4993C367.611 77.6822 366.6 79.5709 366.027 82.1656ZM450.432 42.2722L456.556 13.3683H463.138L460.276 26.8187L458.502 31.7981H458.788L475.158 13.3683H481.74L475.616 42.2722H469.033L471.838 28.8219L473.67 23.8424H473.383L457.014 42.2722H450.432ZM425.101 13.3683L418.977 42.2722H439.867L438.437 48.8543H445.019L447.709 36.2625H443.988L448.853 13.3683H442.271L437.406 36.2625H426.818L431.683 13.3683H425.101ZM399.887 36.8349H401.947C403.664 36.8349 404.981 36.4724 405.897 35.7474C406.812 35.0224 407.423 33.8014 407.728 32.0843L408.071 30.2528H400.688C399.505 30.2528 398.647 30.4436 398.113 30.8251C397.578 31.1686 397.178 31.8935 396.911 33.0001L396.796 33.5152C396.338 35.7283 397.368 36.8349 399.887 36.8349ZM389.871 35.1178L390.557 32.0271C391.13 29.4324 392.141 27.5436 393.591 26.3608C395.041 25.1397 397.063 24.5292 399.658 24.5292H409.273L409.674 22.6977C409.903 21.6675 409.75 20.8662 409.216 20.2938C408.72 19.6833 407.843 19.378 406.583 19.378H395.537L396.796 13.3683H410.304C412.44 13.3683 414.138 14.1696 415.398 15.7722C416.657 17.3366 417.057 19.1109 416.6 21.0951L412.135 42.2722H407.556L407.327 39.1243H407.041C406.622 39.8874 406.087 40.517 405.439 41.0131C403.912 42.2341 401.947 42.8446 399.543 42.8446H396.167C394.03 42.8446 392.332 42.0624 391.073 40.4979C389.813 38.9335 389.413 37.1401 389.871 35.1178ZM337.974 25.1007H349.421L350.05 22.1245C350.508 19.9114 349.478 18.8048 346.96 18.8048H342.953C341.656 18.8048 340.683 19.0528 340.034 19.5489C339.385 20.0068 338.908 20.8653 338.603 22.1245L337.974 25.1007ZM329.388 34.5446L332.422 20.2929C332.956 17.6983 333.948 15.8095 335.398 14.6266C336.886 13.4056 338.927 12.7951 341.522 12.7951H350.68C352.817 12.7951 354.515 13.5964 355.774 15.199C357.033 16.7634 357.434 18.5377 356.976 20.5219L354.801 30.8243H336.772L336.314 32.942C336.085 33.9722 336.218 34.7926 336.714 35.4031C337.249 35.9755 338.145 36.2616 339.404 36.2616H352.511L351.252 42.2714H335.684C333.547 42.2714 331.849 41.4891 330.59 39.9247C329.331 38.3603 328.93 36.5669 329.388 34.5446ZM294.336 36.2625L291.703 48.8543H298.228L299.658 42.2722H317.974L316.543 48.8543H323.125L325.815 36.2625H322.095L326.96 13.3683H306.355L300.975 30.539C300.479 32.2179 299.525 33.706 298.113 35.0033C297.426 35.6138 296.835 36.0336 296.339 36.2625H294.336ZM315.513 36.2625H303.493L303.55 35.8619C304.046 35.6329 304.485 35.2895 304.867 34.8316C305.973 33.5343 306.775 32.1034 307.271 30.539L310.819 19.378H319.118L315.513 36.2625ZM275.846 25.1007H287.293L287.923 22.1245C288.381 19.9114 287.35 18.8048 284.832 18.8048H280.826C279.528 18.8048 278.555 19.0528 277.907 19.5489C277.258 20.0068 276.781 20.8653 276.476 22.1245L275.846 25.1007ZM267.261 34.5446L270.294 20.2929C270.828 17.6983 271.821 15.8095 273.271 14.6266C274.759 13.4056 276.8 12.7951 279.395 12.7951H288.552C290.689 12.7951 292.387 13.5964 293.646 15.199C294.906 16.7634 295.306 18.5377 294.848 20.5219L292.673 30.8243H274.644L274.186 32.942C273.957 33.9722 274.091 34.7926 274.587 35.4031C275.121 35.9755 276.018 36.2616 277.277 36.2616H290.384L289.125 42.2714H273.557C271.42 42.2714 269.722 41.4891 268.463 39.9247C267.204 38.3603 266.803 36.5669 267.261 34.5446ZM344.27 142.549L350.394 113.645H356.976L354.114 127.095L352.34 132.075H352.626L368.995 113.645H375.577L369.453 142.549H362.871L365.676 129.099L367.507 124.119H367.221L350.852 142.549H344.27ZM318.324 113.645L312.2 142.549H318.782L335.151 124.119H335.437L333.606 129.099L330.801 142.549H337.383L343.508 113.645H336.925L320.556 132.075H320.27L322.044 127.095L324.906 113.645H318.324ZM287.756 134.822L290.675 121.143C291.209 118.548 292.201 116.66 293.651 115.477C295.139 114.256 297.181 113.645 299.776 113.645H313.455L312.596 117.652L310.192 119.655H301.206C299.909 119.655 298.936 119.903 298.287 120.399C297.639 120.857 297.162 121.715 296.857 122.975L294.682 133.22C294.224 135.433 295.254 136.539 297.772 136.539H308.59L307.331 142.549H294.052C291.915 142.549 290.217 141.767 288.958 140.202C287.699 138.638 287.298 136.845 287.756 134.822ZM266.039 121.143L263.12 134.822C262.662 136.845 263.063 138.638 264.322 140.202C265.581 141.767 267.279 142.549 269.416 142.549H282.694L283.953 136.539H273.136C270.618 136.539 269.587 135.433 270.045 133.22L272.22 122.975C272.525 121.715 273.002 120.857 273.651 120.399C274.3 119.903 275.273 119.655 276.57 119.655H285.556L287.96 117.652L288.818 113.645H275.139C272.545 113.645 270.503 114.256 269.015 115.477C267.565 116.66 266.573 118.548 266.039 121.143ZM232.11 135.394L235.258 120.57C235.792 117.975 236.784 116.086 238.234 114.903C239.722 113.682 241.763 113.072 244.358 113.072H254.088C256.225 113.072 257.923 113.873 259.182 115.476C260.441 117.04 260.842 118.815 260.384 120.799L257.236 135.623C256.702 138.217 255.691 140.125 254.203 141.346C252.753 142.529 250.73 143.121 248.136 143.121H238.406C236.269 143.121 234.571 142.338 233.312 140.774C232.053 139.209 231.652 137.416 232.11 135.394ZM242.126 137.111H246.705C248.002 137.111 248.975 136.882 249.624 136.424C250.273 135.928 250.749 135.05 251.055 133.791L253.459 122.401C253.917 120.188 252.886 119.082 250.368 119.082H245.789C244.492 119.082 243.519 119.33 242.87 119.826C242.221 120.284 241.744 121.142 241.439 122.401L239.035 133.791C238.577 136.004 239.608 137.111 242.126 137.111ZM205.044 102.484L196.573 142.549H203.442L206.074 129.957H219.296C222.425 129.957 224.771 129.232 226.336 127.782C227.938 126.332 229.064 124.157 229.713 121.257L231.716 111.699C232.25 109.104 231.83 106.929 230.457 105.174C229.083 103.381 227.099 102.484 224.504 102.484H205.044ZM218.151 123.661H207.448L210.596 108.78H220.784C223.913 108.78 225.172 110.211 224.561 113.072L223.073 120.17C222.768 121.467 222.253 122.383 221.528 122.917C220.841 123.413 219.715 123.661 218.151 123.661Z" fill="white"></path><path fill-rule="evenodd" clip-rule="evenodd" d="M29.4577 3.3125L0 142.493H51.9735C51.9735 142.493 60.3526 120.23 61.1452 114.727C62.355 106.326 61.0194 99.9909 59.6326 93.4124C58.5696 88.37 57.4765 83.1848 57.4765 76.8173C57.4765 57.8625 61.4509 45.5344 68.4825 37.9905C75.5141 30.4467 86.897 23.9273 100.583 23.9273C111.284 23.9273 121.984 26.0674 126.876 37.0734C134.485 54.1938 120.761 74.3716 107.004 89.0462C102.934 93.3874 97.5602 97.7159 92.3562 101.908C85.7936 107.194 79.5005 112.263 76.4313 116.867C70.6191 125.585 68.4825 142.493 68.4825 142.493H151.342L180.8 3.3125H29.4577ZM151.977 37.3709C158.489 37.3709 163.768 32.0918 163.768 25.5796C163.768 19.0674 158.489 13.7883 151.977 13.7883C145.465 13.7883 140.186 19.0674 140.186 25.5796C140.186 32.0918 145.465 37.3709 151.977 37.3709Z" fill="white"></path><path d="M83.6819 96.9268C81.2193 98.4199 73.1937 103.622 68.0166 113.081C68.0166 113.081 68.2611 108.816 68.1776 102.454C68.0941 96.0931 66.4055 93.8203 66.4055 93.8203C68.2118 94.9611 68.6396 100.625 83.6819 96.9268Z" fill="white"></path><path d="M85.7116 40.8308C87.0762 38.3071 87.0673 35.6584 85.6918 34.9146C84.3163 34.1709 82.095 35.6138 80.7305 38.1375C79.3659 40.6612 79.3748 43.3099 80.7503 44.0537C82.1258 44.7974 84.3471 43.3545 85.7116 40.8308Z" fill="white"></path><path d="M94.2058 41.0222C95.5703 38.4985 95.5615 35.8498 94.186 35.106C92.8104 34.3623 90.5892 35.8052 89.2246 38.3289C87.8601 40.8526 87.869 43.5014 89.2445 44.2451C90.62 44.9888 92.8412 43.5459 94.2058 41.0222Z" fill="white"></path><path d="M102.599 41.2175C103.963 38.6938 103.954 36.0451 102.579 35.3013C101.203 34.5576 98.982 36.0005 97.6175 38.5242C96.2529 41.0479 96.2618 43.6967 97.6373 44.4404C99.0128 45.1841 101.234 43.7412 102.599 41.2175Z" fill="white"></path><path d="M111.153 41.4089C112.517 38.8852 112.508 36.2365 111.133 35.4927C109.757 34.749 107.536 36.1919 106.171 38.7156C104.807 41.2393 104.816 43.8881 106.191 44.6318C107.567 45.3755 109.788 43.9326 111.153 41.4089Z" fill="white"></path><path d="M77.3747 80.1277C78.7393 77.604 78.7304 74.9552 77.3549 74.2115C75.9794 73.4678 73.7581 74.9107 72.3936 77.4344C71.029 79.9581 71.0379 82.6068 72.4134 83.3506C73.7889 84.0943 76.0102 82.6514 77.3747 80.1277Z" fill="white"></path><path d="M85.8249 80.323C87.1895 77.7993 87.1806 75.1505 85.8051 74.4068C84.4296 73.6631 82.2083 75.106 80.8438 77.6297C79.4792 80.1534 79.4881 82.8021 80.8636 83.5459C82.2391 84.2896 84.4604 82.8467 85.8249 80.323Z" fill="white"></path><path d="M94.3191 80.5144C95.6836 77.9907 95.6747 75.342 94.2992 74.5982C92.9237 73.8545 90.7025 75.2974 89.3379 77.8211C87.9734 80.3448 87.9823 82.9935 89.3578 83.7373C90.7333 84.481 92.9545 83.0381 94.3191 80.5144Z" fill="white"></path><path d="M102.814 80.7058C104.178 78.1821 104.169 75.5334 102.794 74.7896C101.418 74.0459 99.1971 75.4888 97.8325 78.0125C96.468 80.5362 96.4769 83.1849 97.8524 83.9287C99.2279 84.6724 101.449 83.2295 102.814 80.7058Z" fill="white"></path><path d="M74.4997 53.6706C75.8643 51.147 75.8554 48.4982 74.4799 47.7545C73.1044 47.0107 70.8831 48.4537 69.5186 50.9773C68.154 53.501 68.1629 56.1498 69.5384 56.8935C70.9139 57.6373 73.1352 56.1943 74.4997 53.6706Z" fill="white"></path><path d="M82.9929 53.866C84.3575 51.3423 84.3486 48.6935 82.9731 47.9498C81.5976 47.206 79.3763 48.649 78.0117 51.1727C76.6472 53.6963 76.6561 56.3451 78.0316 57.0888C79.4071 57.8326 81.6284 56.3896 82.9929 53.866Z" fill="white"></path><path d="M91.4636 54.0574C92.8282 51.5337 92.8193 48.8849 91.4438 48.1412C90.0683 47.3975 87.847 48.8404 86.4825 51.3641C85.1179 53.8877 85.1268 56.5365 86.5023 57.2802C87.8778 58.024 90.0991 56.581 91.4636 54.0574Z" fill="white"></path><path d="M99.9402 54.2488C101.305 51.7251 101.296 49.0763 99.9203 48.3326C98.5448 47.5889 96.3236 49.0318 94.959 51.5555C93.5945 54.0792 93.6033 56.7279 94.9789 57.4716C96.3544 58.2154 98.5756 56.7725 99.9402 54.2488Z" fill="white"></path><path d="M108.362 54.4441C109.726 51.9204 109.717 49.2716 108.342 48.5279C106.966 47.7842 104.745 49.2271 103.38 51.7508C102.016 54.2745 102.025 56.9232 103.4 57.667C104.776 58.4107 106.997 56.9678 108.362 54.4441Z" fill="white"></path><path d="M116.857 54.6355C118.221 52.1118 118.212 49.463 116.837 48.7193C115.461 47.9756 113.24 49.4185 111.876 51.9422C110.511 54.4659 110.52 57.1146 111.895 57.8584C113.271 58.6021 115.492 57.1592 116.857 54.6355Z" fill="white"></path><path d="M71.6677 66.7214C73.0323 64.1977 73.0234 61.549 71.6479 60.8053C70.2724 60.0615 68.0511 61.5044 66.6866 64.0281C65.322 66.5518 65.3309 69.2006 66.7064 69.9443C68.0819 70.688 70.3032 69.2451 71.6677 66.7214Z" fill="white"></path><path d="M80.1628 66.9128C81.5274 64.3891 81.5185 61.7404 80.143 60.9967C78.7675 60.2529 76.5462 61.6958 75.1817 64.2195C73.8171 66.7432 73.826 69.392 75.2015 70.1357C76.577 70.8794 78.7983 69.4365 80.1628 66.9128Z" fill="white"></path><path d="M88.656 67.1081C90.0205 64.5845 90.0117 61.9357 88.6361 61.192C87.2606 60.4482 85.0394 61.8912 83.6748 64.4148C82.3103 66.9385 82.3192 69.5873 83.6947 70.331C85.0702 71.0748 87.2914 69.6318 88.656 67.1081Z" fill="white"></path><path d="M97.1501 67.2996C98.5147 64.7759 98.5058 62.1271 97.1303 61.3834C95.7548 60.6396 93.5335 62.0826 92.169 64.6063C90.8044 67.1299 90.8133 69.7787 92.1888 70.5224C93.5643 71.2662 95.7856 69.8232 97.1501 67.2996Z" fill="white"></path><path d="M105.53 67.491C106.895 64.9673 106.886 62.3185 105.511 61.5748C104.135 60.8311 101.914 62.274 100.549 64.7977C99.1848 67.3213 99.1937 69.9701 100.569 70.7138C101.945 71.4576 104.166 70.0146 105.53 67.491Z" fill="white"></path><path d="M114.025 67.6863C115.389 65.1626 115.38 62.5138 114.005 61.7701C112.629 61.0264 110.408 62.4693 109.043 64.993C107.679 67.5167 107.688 70.1654 109.063 70.9091C110.439 71.6529 112.66 70.21 114.025 67.6863Z" fill="white"></path><path d="M151.996 37.4818C158.508 37.4818 163.788 32.2025 163.788 25.6901C163.788 19.1778 158.508 13.8984 151.996 13.8984C145.484 13.8984 140.204 19.1778 140.204 25.6901C140.204 32.2025 145.484 37.4818 151.996 37.4818Z" fill="#C1C1C1"></path></svg> 