<?xml version="1.0" encoding="UTF-8"?> <svg xmlns="http://www.w3.org/2000/svg" width="580" height="391" viewBox="0 0 580 391" fill="none"><path d="M527.146 319.945C516.52 319.945 507.254 317.742 499.35 313.336C491.574 308.93 485.548 302.709 481.272 294.675C476.996 286.511 474.857 276.986 474.857 266.101V175.713H501.488V230.723H501.682C503.756 227.743 506.283 225.151 509.263 222.948C512.373 220.745 515.807 219.06 519.565 217.894C523.453 216.728 527.47 216.144 531.617 216.144C541.336 216.144 549.759 218.283 556.887 222.559C564.014 226.835 569.522 232.732 573.409 240.248C577.426 247.634 579.435 256.252 579.435 266.101C579.435 273.876 578.269 281.068 575.936 287.677C573.604 294.156 570.234 299.858 565.828 304.783C561.422 309.577 555.98 313.336 549.5 316.057C543.021 318.649 535.569 319.945 527.146 319.945ZM527.146 297.202C532.459 297.202 536.995 295.906 540.753 293.314C544.511 290.722 547.362 287.224 549.306 282.818C551.379 278.412 552.416 273.487 552.416 268.044C552.416 262.602 551.379 257.677 549.306 253.271C547.362 248.865 544.511 245.367 540.753 242.775C536.995 240.183 532.459 238.887 527.146 238.887C521.963 238.887 517.427 240.183 513.54 242.775C509.781 245.367 506.866 248.865 504.792 253.271C502.848 257.677 501.877 262.602 501.877 268.044C501.877 273.487 502.848 278.412 504.792 282.818C506.866 287.224 509.781 290.722 513.54 293.314C517.427 295.906 521.963 297.202 527.146 297.202Z" fill="white"></path><path d="M409.948 319.944C399.84 319.944 391.158 317.936 383.901 313.918C376.644 309.901 371.072 304.523 367.184 297.785C363.426 291.046 361.547 283.595 361.547 275.431V218.477H388.177V275.431C388.177 279.448 389.149 283.141 391.093 286.51C393.037 289.75 395.629 292.342 398.868 294.286C402.238 296.229 405.931 297.201 409.948 297.201C413.965 297.201 417.594 296.229 420.833 294.286C424.203 292.342 426.859 289.75 428.803 286.51C430.747 283.141 431.719 279.448 431.719 275.431V218.477H458.349V275.431C458.349 283.595 456.405 291.046 452.518 297.785C448.76 304.523 443.252 309.901 435.995 313.918C428.868 317.936 420.186 319.944 409.948 319.944Z" fill="white"></path><path d="M256.107 317.612C245.87 317.612 236.734 315.409 228.7 311.003C220.665 306.597 214.315 300.7 209.65 293.314C204.985 285.798 202.652 277.374 202.652 268.044C202.652 258.714 204.985 250.355 209.65 242.969C214.315 235.453 220.665 229.492 228.7 225.086C236.734 220.68 245.87 218.477 256.107 218.477H268.548V241.219H256.107C250.665 241.219 245.935 242.386 241.918 244.718C238.03 247.051 234.985 250.29 232.782 254.437C230.708 258.455 229.671 262.99 229.671 268.044C229.671 273.098 230.708 277.698 232.782 281.845C234.985 285.862 238.03 289.037 241.918 291.37C245.935 293.703 250.665 294.869 256.107 294.869H268.548V317.612H256.107Z" fill="white"></path><path d="M397.819 158.712C386.639 158.712 376.872 156.574 368.518 152.298C360.293 147.893 353.868 141.932 349.241 134.417C344.743 126.902 342.494 118.48 342.494 109.151C342.494 98.6557 344.615 89.521 348.856 81.7467C353.097 73.9725 358.88 67.9474 366.205 63.6716C373.53 59.3957 381.819 57.2578 391.072 57.2578C402.125 57.2578 411.056 59.5901 417.868 64.2546C424.807 68.9192 429.884 75.2034 433.097 83.1072C436.309 90.8815 437.916 99.5627 437.916 109.151C437.916 110.447 437.852 112.002 437.723 113.816C437.595 115.5 437.402 116.796 437.145 117.703H370.639C371.667 121.719 373.402 125.088 375.844 127.809C378.414 130.53 381.562 132.603 385.289 134.029C389.145 135.324 393.45 135.972 398.205 135.972H425.578V158.712H397.819ZM370.446 99.8219H411.506C411.249 97.36 410.799 95.0926 410.157 93.0194C409.514 90.8167 408.615 88.8731 407.458 87.1887C406.301 85.5043 404.952 84.079 403.41 82.9129C401.868 81.7467 400.068 80.8397 398.012 80.1919C395.956 79.544 393.707 79.2201 391.265 79.2201C388.052 79.2201 385.161 79.8032 382.591 80.9693C380.149 82.1354 378.093 83.6903 376.422 85.6339C374.751 87.5774 373.402 89.7801 372.374 92.242C371.474 94.7038 370.832 97.2305 370.446 99.8219Z" fill="white"></path><path d="M156.044 160.906C146.959 160.906 139.041 158.576 132.292 153.918C125.542 149.26 120.286 143.049 116.522 135.285C112.887 127.391 111.07 118.722 111.07 109.276C111.07 99.5709 113.147 90.7719 117.3 82.8786C121.584 74.9853 127.684 68.7742 135.602 64.2453C143.519 59.587 152.994 57.2578 164.027 57.2578C175.189 57.2578 184.599 59.587 192.257 64.2453C199.915 68.9036 205.756 75.1794 209.779 83.0727C213.803 90.966 215.815 99.7003 215.815 109.276V158.576H189.142V142.078H188.753C186.806 145.572 184.34 148.742 181.354 151.589C178.499 154.436 174.994 156.7 170.841 158.382C166.687 160.064 161.755 160.906 156.044 160.906ZM163.637 138.196C168.829 138.196 173.307 136.902 177.071 134.314C180.835 131.726 183.691 128.233 185.638 123.833C187.714 119.304 188.753 114.322 188.753 108.888C188.753 103.453 187.714 98.6004 185.638 94.3303C183.691 89.9308 180.835 86.437 177.071 83.8491C173.307 81.2611 168.829 79.9671 163.637 79.9671C158.316 79.9671 153.708 81.2611 149.814 83.8491C146.05 86.437 143.13 89.9308 141.053 94.3303C139.106 98.6004 138.133 103.453 138.133 108.888C138.133 114.322 139.106 119.304 141.053 123.833C143.13 128.233 146.05 131.726 149.814 134.314C153.708 136.902 158.316 138.196 163.637 138.196Z" fill="white"></path><path d="M52.9394 57.2578C61.4203 57.2578 68.9225 58.6185 75.4463 61.3398C81.97 63.9315 87.4499 67.6895 91.8861 72.6138C96.3222 77.4085 99.7145 83.1102 102.063 89.7191C104.412 96.1984 105.586 103.326 105.586 111.101C105.586 120.82 103.564 129.437 99.5188 136.953C95.6046 144.469 90.0594 150.365 82.8833 154.642C75.7072 158.918 67.2264 161.056 57.4408 161.056C53.2656 161.056 49.2209 160.473 45.3067 159.307C41.5229 158.141 38.0653 156.456 34.9339 154.253C31.933 152.05 29.3888 149.458 27.3012 146.478H27.1055V201.487H0.292969V111.101C0.292969 100.086 2.4458 90.5614 6.75146 82.5271C11.0571 74.4928 17.1242 68.2726 24.9526 63.8667C32.9116 59.4608 42.2405 57.2578 52.9394 57.2578ZM52.9394 80.0002C47.7204 80.0002 43.1538 81.296 39.2396 83.8878C35.4558 86.4795 32.5202 89.9783 30.4326 94.3842C28.4755 98.7902 27.4969 103.714 27.4969 109.157C27.4969 114.6 28.4755 119.524 30.4326 123.93C32.5202 128.336 35.4558 131.835 39.2396 134.426C43.1538 137.018 47.7204 138.314 52.9394 138.314C58.2889 138.314 62.8555 137.018 66.6392 134.426C70.423 131.835 73.2934 128.336 75.2506 123.93C77.3382 119.524 78.3819 114.6 78.3819 109.157C78.3819 103.714 77.3382 98.7902 75.2506 94.3842C73.2934 89.9783 70.423 86.4795 66.6392 83.8878C62.8555 81.296 58.2889 80.0002 52.9394 80.0002Z" fill="white"></path><path d="M279.428 160.906C271.165 160.906 263.741 159.61 257.156 157.019C250.7 154.297 245.277 150.539 240.887 145.745C236.497 140.82 233.14 135.118 230.816 128.639C228.492 122.03 227.33 114.838 227.33 107.063C227.33 97.2145 229.267 88.5971 233.14 81.2106C237.143 73.6946 242.695 67.7985 249.796 63.5221C257.027 59.2458 265.419 57.1076 274.974 57.1076C279.105 57.1076 283.043 57.6908 286.788 58.857C290.661 60.0233 294.147 61.7079 297.246 63.9109C300.345 66.1139 302.863 68.7056 304.799 71.6861H304.993V16.6768H331.526V107.063C331.526 117.948 329.396 127.473 325.135 135.637C320.874 143.671 314.87 149.891 307.123 154.297C299.376 158.703 290.145 160.906 279.428 160.906ZM279.428 138.164C284.722 138.164 289.241 136.868 292.985 134.276C296.73 131.684 299.57 128.186 301.507 123.78C303.573 119.374 304.606 114.449 304.606 109.007C304.606 103.564 303.573 98.64 301.507 94.2341C299.57 89.8281 296.73 86.3293 292.985 83.7376C289.241 81.1459 284.722 79.85 279.428 79.85C274.264 79.85 269.744 81.1459 265.871 83.7376C262.127 86.3293 259.222 89.8281 257.156 94.2341C255.219 98.64 254.251 103.564 254.251 109.007C254.251 114.449 255.219 119.374 257.156 123.78C259.222 128.186 262.127 131.684 265.871 134.276C269.744 136.868 274.264 138.164 279.428 138.164Z" fill="white"></path><path d="M262.154 95.0981C264.426 95.0981 266.267 93.2566 266.267 90.9851C266.267 88.7135 264.426 86.8721 262.154 86.8721C259.882 86.8721 258.041 88.7135 258.041 90.9851C258.041 93.2566 259.882 95.0981 262.154 95.0981Z" fill="white"></path><path d="M262.154 112.098C264.426 112.098 266.267 110.257 266.267 107.985C266.267 105.714 264.426 103.872 262.154 103.872C259.882 103.872 258.041 105.714 258.041 107.985C258.041 110.257 259.882 112.098 262.154 112.098Z" fill="white"></path><path d="M262.154 129.099C264.426 129.099 266.267 127.258 266.267 124.986C266.267 122.714 264.426 120.873 262.154 120.873C259.882 120.873 258.041 122.714 258.041 124.986C258.041 127.258 259.882 129.099 262.154 129.099Z" fill="white"></path><path d="M279.154 112.098C281.426 112.098 283.267 110.257 283.267 107.985C283.267 105.714 281.426 103.872 279.154 103.872C276.882 103.872 275.041 105.714 275.041 107.985C275.041 110.257 276.882 112.098 279.154 112.098Z" fill="white"></path><path d="M279.154 95.0981C281.426 95.0981 283.267 93.2566 283.267 90.9851C283.267 88.7135 281.426 86.8721 279.154 86.8721C276.882 86.8721 275.041 88.7135 275.041 90.9851C275.041 93.2566 276.882 95.0981 279.154 95.0981Z" fill="white"></path><path d="M296.156 112.098C298.428 112.098 300.269 110.257 300.269 107.985C300.269 105.714 298.428 103.872 296.156 103.872C293.884 103.872 292.043 105.714 292.043 107.985C292.043 110.257 293.884 112.098 296.156 112.098Z" fill="white"></path><path d="M279.154 129.099C281.426 129.099 283.267 127.258 283.267 124.986C283.267 122.714 281.426 120.873 279.154 120.873C276.882 120.873 275.041 122.714 275.041 124.986C275.041 127.258 276.882 129.099 279.154 129.099Z" fill="white"></path><path d="M296.156 95.0981C298.428 95.0981 300.269 93.2566 300.269 90.9851C300.269 88.7135 298.428 86.8721 296.156 86.8721C293.884 86.8721 292.043 88.7135 292.043 90.9851C292.043 93.2566 293.884 95.0981 296.156 95.0981Z" fill="white"></path><path d="M296.156 129.099C298.428 129.099 300.269 127.258 300.269 124.986C300.269 122.714 298.428 120.873 296.156 120.873C293.884 120.873 292.043 122.714 292.043 124.986C292.043 127.258 293.884 129.099 296.156 129.099Z" fill="white"></path><path d="M510.031 254.683C512.303 254.683 514.144 252.842 514.144 250.57C514.144 248.298 512.303 246.457 510.031 246.457C507.759 246.457 505.918 248.298 505.918 250.57C505.918 252.842 507.759 254.683 510.031 254.683Z" fill="white"></path><path d="M510.031 271.684C512.303 271.684 514.144 269.843 514.144 267.571C514.144 265.299 512.303 263.458 510.031 263.458C507.759 263.458 505.918 265.299 505.918 267.571C505.918 269.843 507.759 271.684 510.031 271.684Z" fill="white"></path><path d="M510.031 288.684C512.303 288.684 514.144 286.843 514.144 284.571C514.144 282.299 512.303 280.458 510.031 280.458C507.759 280.458 505.918 282.299 505.918 284.571C505.918 286.843 507.759 288.684 510.031 288.684Z" fill="white"></path><path d="M527.031 271.684C529.302 271.684 531.144 269.843 531.144 267.571C531.144 265.299 529.302 263.458 527.031 263.458C524.759 263.458 522.918 265.299 522.918 267.571C522.918 269.843 524.759 271.684 527.031 271.684Z" fill="white"></path><path d="M527.031 254.683C529.302 254.683 531.144 252.842 531.144 250.57C531.144 248.298 529.302 246.457 527.031 246.457C524.759 246.457 522.918 248.298 522.918 250.57C522.918 252.842 524.759 254.683 527.031 254.683Z" fill="white"></path><path d="M544.031 271.684C546.302 271.684 548.144 269.843 548.144 267.571C548.144 265.299 546.302 263.458 544.031 263.458C541.759 263.458 539.918 265.299 539.918 267.571C539.918 269.843 541.759 271.684 544.031 271.684Z" fill="white"></path><path d="M527.031 288.684C529.302 288.684 531.144 286.843 531.144 284.571C531.144 282.299 529.302 280.458 527.031 280.458C524.759 280.458 522.918 282.299 522.918 284.571C522.918 286.843 524.759 288.684 527.031 288.684Z" fill="white"></path><path d="M544.031 254.683C546.302 254.683 548.144 252.842 548.144 250.57C548.144 248.298 546.302 246.457 544.031 246.457C541.759 246.457 539.918 248.298 539.918 250.57C539.918 252.842 541.759 254.683 544.031 254.683Z" fill="white"></path><path d="M544.031 288.684C546.302 288.684 548.144 286.843 548.144 284.571C548.144 282.299 546.302 280.458 544.031 280.458C541.759 280.458 539.918 282.299 539.918 284.571C539.918 286.843 541.759 288.684 544.031 288.684Z" fill="white"></path><path d="M317.267 325.426H317.267C330.896 325.426 341.945 314.377 341.945 300.748V188.874C341.945 175.244 330.896 164.196 317.267 164.196H317.267C303.638 164.196 292.589 175.244 292.589 188.874V300.748C292.589 314.377 303.638 325.426 317.267 325.426Z" fill="url(#paint0_linear_313_1569)"></path><path d="M482.885 0.224609H482.885C469.256 0.224609 458.207 11.2733 458.207 24.9026V134.035C458.207 147.664 469.256 158.713 482.885 158.713C496.514 158.713 507.563 147.664 507.563 134.035V24.9026C507.563 11.2733 496.514 0.224609 482.885 0.224609Z" fill="url(#paint1_linear_313_1569)"></path><path d="M316.995 390.138C330.776 390.138 341.947 378.966 341.947 365.186C341.947 351.405 330.776 340.233 316.995 340.233C303.214 340.233 292.043 351.405 292.043 365.186C292.043 378.966 303.214 390.138 316.995 390.138Z" fill="#EDEDED"></path><path d="M482.885 49.5806C496.514 49.5806 507.563 38.5319 507.563 24.9026C507.563 11.2733 496.514 0.224609 482.885 0.224609C469.256 0.224609 458.207 11.2733 458.207 24.9026C458.207 38.5319 469.256 49.5806 482.885 49.5806Z" fill="#EDEDED"></path><defs><linearGradient id="paint0_linear_313_1569" x1="317.267" y1="190.342" x2="311.101" y2="323.255" gradientUnits="userSpaceOnUse"><stop stop-color="#686868" stop-opacity="0"></stop><stop offset="0.889786" stop-color="white"></stop></linearGradient><linearGradient id="paint1_linear_313_1569" x1="482.885" y1="143.153" x2="492.344" y2="-21.3177" gradientUnits="userSpaceOnUse"><stop stop-color="#686868" stop-opacity="0"></stop><stop offset="1" stop-color="white"></stop></linearGradient></defs></svg> 